<svg width="72" height="72" viewBox="0 0 72 72" fill="none" xmlns="http://www.w3.org/2000/svg">
<path d="M47.2918 28.1318V52.0089M24.7424 52.5444V28.1318" stroke="#03645D" stroke-miterlimit="10" stroke-linecap="round" stroke-linejoin="round"/>
<path d="M49.2465 29.9C50.6859 28.6292 50.6859 26.8457 49.2465 25.575L36.0314 13.9116L36.0177 13.924L36.0039 13.9116L22.7888 25.575C21.3494 26.8457 21.3494 28.6292 22.7888 29.9L36.019 18.2244L49.2465 29.9Z" stroke="#03645D" stroke-miterlimit="10" stroke-linecap="round" stroke-linejoin="round"/>
<path d="M36.0189 28.133C37.2257 28.133 38.2041 27.1547 38.2041 25.9479C38.2041 24.741 37.2257 23.7627 36.0189 23.7627C34.8121 23.7627 33.8337 24.741 33.8337 25.9479C33.8337 27.1547 34.8121 28.133 36.0189 28.133Z" stroke="#03645D" stroke-miterlimit="10" stroke-linecap="round" stroke-linejoin="round"/>
<path d="M43.1169 41.6772H29.0258V49.4322H43.1169V41.6772Z" stroke="#03645D" stroke-miterlimit="10" stroke-linecap="round" stroke-linejoin="round"/>
<path d="M43.1182 30.71H37.2385V38.465H43.1182V30.71Z" stroke="#03645D" stroke-miterlimit="10" stroke-linecap="round" stroke-linejoin="round"/>
<path d="M34.8941 30.71H29.0144V38.465H34.8941V30.71Z" stroke="#03645D" stroke-miterlimit="10" stroke-linecap="round" stroke-linejoin="round"/>
<path d="M33.573 41.6772V49.4322" stroke="#03645D" stroke-miterlimit="10" stroke-linecap="round" stroke-linejoin="round"/>
<path d="M38.5723 41.6772V49.4322" stroke="#03645D" stroke-miterlimit="10" stroke-linecap="round" stroke-linejoin="round"/>
<path d="M50.219 41.8345H58.7869V52.5444" stroke="#03645D" stroke-miterlimit="10" stroke-linecap="round" stroke-linejoin="round"/>
<path d="M22.3735 41.8345H13.8056V52.5444" stroke="#03645D" stroke-miterlimit="10" stroke-linecap="round" stroke-linejoin="round"/>
<path d="M50.2189 37.5508H58.9728L60.9288 41.8347H50.2189" stroke="#03645D" stroke-miterlimit="10" stroke-linecap="round" stroke-linejoin="round"/>
<path d="M22.3736 37.5508H13.6197L11.6637 41.8347H22.3736" stroke="#03645D" stroke-miterlimit="10" stroke-linecap="round" stroke-linejoin="round"/>
<path d="M47.4505 23.83V16.6392H44.6854V21.3885" stroke="#03645D" stroke-miterlimit="10" stroke-linecap="round" stroke-linejoin="round"/>
<path d="M9.52148 52.5444L62 52.5444" stroke="#03645D" stroke-miterlimit="10" stroke-linecap="round" stroke-linejoin="round"/>
</svg>
