<svg width="73" height="72" viewBox="0 0 73 72" fill="none" xmlns="http://www.w3.org/2000/svg">
<path d="M15.4656 51.4123V45.9634" stroke="#03645D" stroke-miterlimit="10" stroke-linecap="round" stroke-linejoin="round"/>
<path d="M15.4196 45.7679C16.4932 45.7679 17.3636 44.1884 17.3636 42.2399C17.3636 40.2915 16.4932 38.7119 15.4196 38.7119C14.3459 38.7119 13.4756 40.2915 13.4756 42.2399C13.4756 44.1884 14.3459 45.7679 15.4196 45.7679Z" stroke="#03645D" stroke-miterlimit="10" stroke-linecap="round" stroke-linejoin="round"/>
<path d="M30.5 22V51" stroke="#03645D" stroke-miterlimit="10" stroke-linecap="round" stroke-linejoin="round"/>
<path d="M50.5 39V23" stroke="#03645D" stroke-miterlimit="10" stroke-linecap="square" stroke-linejoin="round"/>
<path d="M58.5 51L58.5 40L34.5 40L34.5 51" stroke="#03645D" stroke-miterlimit="10" stroke-linecap="round" stroke-linejoin="round"/>
<path d="M50.5 43.2378V51.3839" stroke="#03645D" stroke-miterlimit="10" stroke-linecap="round" stroke-linejoin="round"/>
<path d="M42.5 43.2378V51.3839" stroke="#03645D" stroke-miterlimit="10" stroke-linecap="round" stroke-linejoin="round"/>
<path d="M43.5 36V26H38.5V36" stroke="#03645D" stroke-miterlimit="10" stroke-linecap="square" stroke-linejoin="round"/>
<path d="M37.5 36.6797H44.268" stroke="#03645D" stroke-miterlimit="10" stroke-linecap="round" stroke-linejoin="round"/>
<path d="M29.5 22H51.5" stroke="#03645D" stroke-miterlimit="10" stroke-linecap="round" stroke-linejoin="round"/>
<path d="M48.5 18.8333L32.5 16V22H48.5V18.8333Z" stroke="#03645D" stroke-miterlimit="10" stroke-linecap="round" stroke-linejoin="round"/>
<path d="M27.876 54.6797C29.6328 54.6797 29.6328 56.6957 31.3896 56.6957C33.1464 56.6957 33.1464 54.6797 34.9017 54.6797C36.6585 54.6797 36.6585 56.6957 38.4153 56.6957C40.1721 56.6957 40.1721 54.6797 41.9289 54.6797C43.6857 54.6797 43.6857 56.6957 45.4425 56.6957C47.1993 56.6957 47.1993 54.6797 48.9561 54.6797C50.7129 54.6797 50.7129 56.6957 52.4697 56.6957" stroke="#03645D" stroke-miterlimit="10" stroke-linecap="round" stroke-linejoin="round"/>
<path d="M19.0156 60.8575V51.0064C19.0156 50.1496 19.7097 49.4556 20.5665 49.4556C21.4233 49.4556 22.1174 50.1496 22.1174 51.0064V51.2095" stroke="#03645D" stroke-miterlimit="10" stroke-linecap="round" stroke-linejoin="round"/>
<path d="M23.9121 60.8575V51.0064C23.9121 50.1496 24.6062 49.4556 25.463 49.4556C26.3198 49.4556 27.0139 50.1496 27.0139 51.0064V51.2095" stroke="#03645D" stroke-miterlimit="10" stroke-linecap="round" stroke-linejoin="round"/>
<path d="M19.0156 54.8745H23.8497" stroke="#03645D" stroke-miterlimit="10" stroke-linecap="round" stroke-linejoin="round"/>
<path d="M19.0781 57.9775H23.9122" stroke="#03645D" stroke-miterlimit="10" stroke-linecap="round" stroke-linejoin="round"/>
<path d="M10.5 51.5H63" stroke="#03645D" stroke-linecap="round"/>
</svg>
