<svg
  width="61"
  height="57"
  viewBox="0 0 61 57"
  fill="none"
  xmlns="http://www.w3.org/2000/svg"
>
<path
    d="M27.3698 42.9665C26.9598 42.9665 26.6267 43.301 26.6267 43.7125C26.6267 43.7597 26.6304 43.8057 26.6391 43.8493C26.7035 44.1961 27.0069 44.4585 27.3698 44.4585C27.7326 44.4585 28.036 44.1961 28.1004 43.8493C28.1091 43.8057 28.1128 43.7597 28.1128 43.7125C28.1128 43.301 27.7797 42.9665 27.3698 42.9665ZM36.2867 46.674H48.8919L31.1743 15.8665C31.0975 15.7322 30.9687 15.7173 30.9167 15.7173C30.8647 15.7173 30.7372 15.7322 30.6591 15.8665L12.9416 46.674H25.5467V43.1356C25.5467 42.3722 25.704 41.6474 25.9889 40.9897C26.8149 39.08 28.7098 37.7447 30.9167 37.7447C33.1237 37.7447 35.0185 39.08 35.8446 40.9897C36.1295 41.6474 36.2867 42.3722 36.2867 43.1356V46.674ZM31.8902 34.0098V30.5547H35.1139C34.8328 32.2568 33.5485 33.6194 31.8902 34.0098ZM30.0325 34.0285C28.332 33.6679 27.0069 32.2879 26.7208 30.5547H30.0325V34.0285ZM35.0136 28.6898H31.8902V25.6897C33.3974 26.0441 34.5962 27.2028 35.0136 28.6898ZM30.0325 25.6711V28.6898H26.8211C27.2471 27.1742 28.4844 25.9993 30.0325 25.6711ZM27.3698 42.9665C26.9598 42.9665 26.6267 43.301 26.6267 43.7125C26.6267 43.7597 26.6304 43.8057 26.6391 43.8493C26.7035 44.1961 27.0069 44.4585 27.3698 44.4585C27.7326 44.4585 28.036 44.1961 28.1004 43.8493C28.1091 43.8057 28.1128 43.7597 28.1128 43.7125C28.1128 43.301 27.7797 42.9665 27.3698 42.9665ZM27.3698 42.9665C26.9598 42.9665 26.6267 43.301 26.6267 43.7125C26.6267 43.7597 26.6304 43.8057 26.6391 43.8493C26.7035 44.1961 27.0069 44.4585 27.3698 44.4585C27.7326 44.4585 28.036 44.1961 28.1004 43.8493C28.1091 43.8057 28.1128 43.7597 28.1128 43.7125C28.1128 43.301 27.7797 42.9665 27.3698 42.9665ZM36.2867 46.674H48.8919L31.1743 15.8665C31.0975 15.7322 30.9687 15.7173 30.9167 15.7173C30.8647 15.7173 30.7372 15.7322 30.6591 15.8665L12.9416 46.674H25.5467V43.1356C25.5467 42.3722 25.704 41.6474 25.9889 40.9897C26.8149 39.08 28.7098 37.7447 30.9167 37.7447C33.1237 37.7447 35.0185 39.08 35.8446 40.9897C36.1295 41.6474 36.2867 42.3722 36.2867 43.1356V46.674ZM31.8902 34.0098V30.5547H35.1139C34.8328 32.2568 33.5485 33.6194 31.8902 34.0098ZM30.0325 34.0285C28.332 33.6679 27.0069 32.2879 26.7208 30.5547H30.0325V34.0285ZM35.0136 28.6898H31.8902V25.6897C33.3974 26.0441 34.5962 27.2028 35.0136 28.6898ZM30.0325 25.6711V28.6898H26.8211C27.2471 27.1742 28.4844 25.9993 30.0325 25.6711ZM27.3698 42.9665C26.9598 42.9665 26.6267 43.301 26.6267 43.7125C26.6267 43.7597 26.6304 43.8057 26.6391 43.8493C26.7035 44.1961 27.0069 44.4585 27.3698 44.4585C27.7326 44.4585 28.036 44.1961 28.1004 43.8493C28.1091 43.8057 28.1128 43.7597 28.1128 43.7125C28.1128 43.301 27.7797 42.9665 27.3698 42.9665ZM27.3698 42.9665C26.9598 42.9665 26.6267 43.301 26.6267 43.7125C26.6267 43.7597 26.6304 43.8057 26.6391 43.8493C26.7035 44.1961 27.0069 44.4585 27.3698 44.4585C27.7326 44.4585 28.036 44.1961 28.1004 43.8493C28.1091 43.8057 28.1128 43.7597 28.1128 43.7125C28.1128 43.301 27.7797 42.9665 27.3698 42.9665ZM27.3698 42.9665C26.9598 42.9665 26.6267 43.301 26.6267 43.7125C26.6267 43.7597 26.6304 43.8057 26.6391 43.8493C26.7035 44.1961 27.0069 44.4585 27.3698 44.4585C27.7326 44.4585 28.036 44.1961 28.1004 43.8493C28.1091 43.8057 28.1128 43.7597 28.1128 43.7125C28.1128 43.301 27.7797 42.9665 27.3698 42.9665ZM58.3823 46.9227L51.2945 34.5432H48.3395C47.5184 34.5432 46.8534 33.8743 46.8534 33.0513C46.8534 32.7404 46.9487 32.4508 47.1122 32.2108C47.3785 31.8179 47.8293 31.5593 48.3395 31.5593H49.5854L45.5629 24.5335H42.9522C42.8593 24.5335 42.7689 24.5248 42.6822 24.5086C41.9899 24.3818 41.466 23.7738 41.466 23.0415C41.466 22.8662 41.4958 22.6984 41.5515 22.543C41.7558 21.9648 42.3057 21.5496 42.9522 21.5496H43.855L39.7966 14.4628H37.8745C37.0534 14.4628 36.3883 13.7952 36.3883 12.9709C36.3883 12.1478 37.0534 11.4789 37.8745 11.4789H38.0887L32.1205 1.05642C31.5867 0.12395 30.2455 0.122707 29.7105 1.05518L23.7274 11.4789H23.7336C24.5547 11.4789 25.2198 12.1478 25.2198 12.9709C25.2198 13.7952 24.5547 14.4628 23.7336 14.4628H22.0146L17.9475 21.5496H18.6559C19.4014 21.5496 20.0169 22.1004 20.1247 22.8165V22.8177L19.1971 24.4315C19.0299 24.4974 18.8466 24.5335 18.6559 24.5335H16.2347L12.201 31.5593H13.2685C13.8593 31.5593 14.3695 31.905 14.6098 32.4072C14.7027 32.6024 14.7547 32.8213 14.7547 33.0513C14.7547 33.8345 14.1516 34.4786 13.3849 34.5382C13.3465 34.542 13.3082 34.5432 13.2685 34.5432H10.4882L3.38304 46.9227L3.29883 47.0694H11.9273C11.9235 47.0196 11.931 46.9699 11.9483 46.9227C11.9545 46.9015 11.9644 46.8804 11.9756 46.8605L30.0151 15.4935C30.2034 15.1665 30.5402 14.9713 30.9167 14.9713C31.2932 14.9713 31.6301 15.1665 31.8183 15.4935L49.8579 46.8605C49.8691 46.8804 49.879 46.9015 49.8852 46.9227C49.9025 46.9699 49.9099 47.0196 49.9062 47.0694H58.4665L58.3823 46.9227ZM27.3698 42.9665C26.9598 42.9665 26.6267 43.301 26.6267 43.7125C26.6267 43.7597 26.6304 43.8057 26.6391 43.8493C26.7035 44.1961 27.0069 44.4585 27.3698 44.4585C27.7326 44.4585 28.036 44.1961 28.1004 43.8493C28.1091 43.8057 28.1128 43.7597 28.1128 43.7125C28.1128 43.301 27.7797 42.9665 27.3698 42.9665ZM36.2867 46.674H48.8919L31.1743 15.8665C31.0975 15.7322 30.9687 15.7173 30.9167 15.7173C30.8647 15.7173 30.7372 15.7322 30.6591 15.8665L12.9416 46.674H25.5467V43.1356C25.5467 42.3722 25.704 41.6474 25.9889 40.9897C26.8149 39.08 28.7098 37.7447 30.9167 37.7447C33.1237 37.7447 35.0185 39.08 35.8446 40.9897C36.1295 41.6474 36.2867 42.3722 36.2867 43.1356V46.674ZM31.8902 34.0098V30.5547H35.1139C34.8328 32.2568 33.5485 33.6194 31.8902 34.0098ZM30.0325 34.0285C28.332 33.6679 27.0069 32.2879 26.7208 30.5547H30.0325V34.0285ZM35.0136 28.6898H31.8902V25.6897C33.3974 26.0441 34.5962 27.2028 35.0136 28.6898ZM30.0325 25.6711V28.6898H26.8211C27.2471 27.1742 28.4844 25.9993 30.0325 25.6711ZM27.3698 42.9665C26.9598 42.9665 26.6267 43.301 26.6267 43.7125C26.6267 43.7597 26.6304 43.8057 26.6391 43.8493C26.7035 44.1961 27.0069 44.4585 27.3698 44.4585C27.7326 44.4585 28.036 44.1961 28.1004 43.8493C28.1091 43.8057 28.1128 43.7597 28.1128 43.7125C28.1128 43.301 27.7797 42.9665 27.3698 42.9665ZM27.3698 42.9665C26.9598 42.9665 26.6267 43.301 26.6267 43.7125C26.6267 43.7597 26.6304 43.8057 26.6391 43.8493C26.7035 44.1961 27.0069 44.4585 27.3698 44.4585C27.7326 44.4585 28.036 44.1961 28.1004 43.8493C28.1091 43.8057 28.1128 43.7597 28.1128 43.7125C28.1128 43.301 27.7797 42.9665 27.3698 42.9665ZM27.3698 42.9665C26.9598 42.9665 26.6267 43.301 26.6267 43.7125C26.6267 43.7597 26.6304 43.8057 26.6391 43.8493C26.7035 44.1961 27.0069 44.4585 27.3698 44.4585C27.7326 44.4585 28.036 44.1961 28.1004 43.8493C28.1091 43.8057 28.1128 43.7597 28.1128 43.7125C28.1128 43.301 27.7797 42.9665 27.3698 42.9665Z"
    fill="#1F8078"
  />
<path
    d="M56.8812 49.196L55.6576 47.0688L55.6452 47.0464L55.5734 46.9221L48.4546 34.5426H48.3407C47.5196 34.5426 46.8545 33.8737 46.8545 33.0507C46.8545 32.7398 46.9499 32.4502 47.1134 32.2102L42.6834 24.508C41.9911 24.3812 41.4672 23.7732 41.4672 23.0409C41.4672 22.8656 41.4969 22.6978 41.5527 22.5424L31.5619 5.16986C31.2758 4.67255 30.5612 4.67255 30.2751 5.16986L20.1259 22.8159V22.8171L19.1982 24.4309L14.611 32.4066C14.7038 32.6018 14.7559 32.8207 14.7559 33.0507C14.7559 33.8339 14.1527 34.478 13.3861 34.5376L6.26366 46.9221L6.19183 47.0464L6.17944 47.0688L4.9546 49.196C4.74653 49.5578 4.87905 49.9855 5.18867 50.1907C5.30385 50.269 5.44255 50.315 5.5986 50.315H7.52319C7.6718 50.315 7.81299 50.2702 7.93188 50.1907C8.02724 50.1285 8.10774 50.044 8.16719 49.942L9.82055 47.0688L9.83293 47.0464L9.90477 46.9221L30.2751 11.5019C30.5612 11.0046 31.2758 11.0046 31.5619 11.5019L51.9323 46.9221L52.0041 47.0464L52.0165 47.0688L53.6698 49.942C53.7281 50.044 53.8098 50.1285 53.9039 50.1907C54.0241 50.2702 54.1652 50.315 54.3126 50.315H56.2384C56.3945 50.315 56.5357 50.269 56.6508 50.1907C56.958 49.9843 57.0893 49.5566 56.8812 49.196Z"
    fill="#1F8078"
  />
<path
    d="M61.0925 52.8965H0.743083C0.333149 52.8965 0 53.2309 0 53.6425V56.6425H61.8356V53.6425C61.8356 53.2297 61.5025 52.8965 61.0925 52.8965Z"
    fill="#1F8078"
  />
<path
    d="M41.0291 37.7229H20.8062L21.335 36.8302L22.4979 34.8633H39.3362L40.5003 36.8302L41.0291 37.7229Z"
    fill="#1F8078"
  />
<path
    d="M19.2135 40.9902H25.988C25.7031 41.6479 25.5458 42.3728 25.5458 43.1362V43.8498H18.4283V42.3541L19.2135 40.9902Z"
    fill="#1F8078"
  />
<path
    d="M28.1119 43.7128C28.1119 43.76 28.1082 43.806 28.0995 43.8495H26.6381C26.6294 43.806 26.6257 43.76 26.6257 43.7128C26.6257 43.3012 26.9589 42.9668 27.3688 42.9668C27.7787 42.9668 28.1119 43.3012 28.1119 43.7128Z"
    fill="#1F8078"
  />
<path
    d="M43.4031 42.3541V43.8498H36.2856V43.1362C36.2856 42.3728 36.1284 41.6479 35.8435 40.9902H42.6192L43.4031 42.3541Z"
    fill="#1F8078"
  />
<path
    d="M59.4477 46.9219V50.1905H1.98267V46.9219H11.9499C11.9325 46.9691 11.9251 47.0189 11.9288 47.0686C11.9313 47.1258 11.9486 47.1817 11.9771 47.2327C12.044 47.3483 12.1666 47.4192 12.2991 47.4192H49.5375C49.67 47.4192 49.7926 47.3483 49.8595 47.2327C49.888 47.1817 49.9053 47.1258 49.9078 47.0686C49.9115 47.0189 49.9041 46.9691 49.8867 46.9219H59.4477Z"
    fill="#1F8078"
  />
<path
    d="M20.1422 23.0412C20.1422 23.674 19.7509 24.2148 19.1973 24.4312L20.1249 22.8174C20.136 22.8907 20.1422 22.9653 20.1422 23.0412Z"
    fill="white"
  />
<path
    d="M36.288 46.6745H48.8932L31.1756 15.867C31.0989 15.7327 30.9701 15.7178 30.918 15.7178C30.866 15.7178 30.7385 15.7327 30.6604 15.867L12.9429 46.6745H25.548V43.1361C25.548 42.3727 25.7053 41.6478 25.9902 40.9901C26.8162 39.0805 28.7111 37.7452 30.918 37.7452C33.125 37.7452 35.0199 39.0805 35.8459 40.9901C36.1308 41.6478 36.288 42.3727 36.288 43.1361V46.6745ZM31.8915 34.0103V30.5552H35.1152C34.8341 32.2573 33.5498 33.6199 31.8915 34.0103ZM30.0338 34.029C28.3334 33.6684 27.0082 32.2884 26.7221 30.5552H30.0338V34.029ZM35.0149 28.6903H31.8915V25.6902C33.3987 26.0445 34.5975 27.2033 35.0149 28.6903ZM30.0338 25.6716V28.6903H26.8224C27.2485 27.1747 28.4857 25.9998 30.0338 25.6716ZM27.3711 42.967C26.9611 42.967 26.628 43.3014 26.628 43.713C26.628 43.7602 26.6317 43.8062 26.6404 43.8497C26.7048 44.1966 27.0082 44.4589 27.3711 44.4589C27.7339 44.4589 28.0374 44.1966 28.1018 43.8497C28.1104 43.8062 28.1141 43.7602 28.1141 43.713C28.1141 43.3014 27.781 42.967 27.3711 42.967ZM27.3711 42.967C26.9611 42.967 26.628 43.3014 26.628 43.713C26.628 43.7602 26.6317 43.8062 26.6404 43.8497C26.7048 44.1966 27.0082 44.4589 27.3711 44.4589C27.7339 44.4589 28.0374 44.1966 28.1018 43.8497C28.1104 43.8062 28.1141 43.7602 28.1141 43.713C28.1141 43.3014 27.781 42.967 27.3711 42.967ZM27.3711 42.967C26.9611 42.967 26.628 43.3014 26.628 43.713C26.628 43.7602 26.6317 43.8062 26.6404 43.8497C26.7048 44.1966 27.0082 44.4589 27.3711 44.4589C27.7339 44.4589 28.0374 44.1966 28.1018 43.8497C28.1104 43.8062 28.1141 43.7602 28.1141 43.713C28.1141 43.3014 27.781 42.967 27.3711 42.967ZM27.3711 42.967C26.9611 42.967 26.628 43.3014 26.628 43.713C26.628 43.7602 26.6317 43.8062 26.6404 43.8497C26.7048 44.1966 27.0082 44.4589 27.3711 44.4589C27.7339 44.4589 28.0374 44.1966 28.1018 43.8497C28.1104 43.8062 28.1141 43.7602 28.1141 43.713C28.1141 43.3014 27.781 42.967 27.3711 42.967ZM27.3711 42.967C26.9611 42.967 26.628 43.3014 26.628 43.713C26.628 43.7602 26.6317 43.8062 26.6404 43.8497C26.7048 44.1966 27.0082 44.4589 27.3711 44.4589C27.7339 44.4589 28.0374 44.1966 28.1018 43.8497C28.1104 43.8062 28.1141 43.7602 28.1141 43.713C28.1141 43.3014 27.781 42.967 27.3711 42.967ZM27.3711 42.967C26.9611 42.967 26.628 43.3014 26.628 43.713C26.628 43.7602 26.6317 43.8062 26.6404 43.8497C26.7048 44.1966 27.0082 44.4589 27.3711 44.4589C27.7339 44.4589 28.0374 44.1966 28.1018 43.8497C28.1104 43.8062 28.1141 43.7602 28.1141 43.713C28.1141 43.3014 27.781 42.967 27.3711 42.967Z"
    fill="#1F8078"
  />
<path
    d="M35.1725 29.8501C35.1725 30.09 35.1527 30.3263 35.1143 30.555H31.8906V34.0101C31.5785 34.0835 31.2515 34.122 30.9171 34.122C30.6137 34.122 30.3177 34.0897 30.0328 34.0288V30.555H26.7212C26.6828 30.3263 26.663 30.09 26.663 29.8501C26.663 29.4485 26.7187 29.0593 26.8215 28.6901H30.0328V25.6714C30.3177 25.6105 30.6137 25.5781 30.9171 25.5781C31.2515 25.5781 31.5785 25.6167 31.8906 25.69V28.6901H35.014C35.1168 29.0593 35.1725 29.4485 35.1725 29.8501Z"
    fill="white"
  />
<path
    d="M26.6396 43.8495C26.6309 43.806 26.6272 43.76 26.6272 43.7128C26.6272 43.3012 26.9603 42.9668 27.3703 42.9668C27.7802 42.9668 28.1134 43.3012 28.1134 43.7128C28.1134 43.76 28.1096 43.806 28.101 43.8495C28.0366 44.1964 27.7332 44.4587 27.3703 44.4587C27.0074 44.4587 26.704 44.1964 26.6396 43.8495Z"
    fill="white"
  />
<path d="M31.8914 24.0654H30.0337V35.1767H31.8914V24.0654Z" fill="#1F8078" />
<path d="M36.4967 28.6895H25.4272V30.5544H36.4967V28.6895Z" fill="#1F8078" />
<path
    d="M28.1134 43.7128C28.1134 43.76 28.1096 43.806 28.101 43.8495C28.0366 44.1964 27.7332 44.4587 27.3703 44.4587C27.0074 44.4587 26.704 44.1964 26.6396 43.8495C26.6309 43.806 26.6272 43.76 26.6272 43.7128C26.6272 43.3012 26.9603 42.9668 27.3703 42.9668C27.7802 42.9668 28.1134 43.3012 28.1134 43.7128Z"
    fill="#1F8078"
  />
</svg>
