<svg
  width="55"
  height="58"
  viewBox="0 0 55 58"
  fill="none"
  xmlns="http://www.w3.org/2000/svg"
>
<path
    d="M43.5057 7.82883H11.4939V6.2877C11.4939 5.50772 12.1268 4.87598 12.9082 4.87598H42.0915C42.8728 4.87598 43.5057 5.50772 43.5057 6.2877V7.82883Z"
    fill="#1F8078"
  />
<path
    d="M53.4282 54.3018H1.57188C1.18178 54.3018 0.864746 54.6182 0.864746 55.0076V57.3287H54.1353V55.0076C54.1353 54.6182 53.8183 54.3018 53.4282 54.3018Z"
    fill="#1F8078"
  />
<path
    d="M13.5824 7.80078V47.9891H23.9336V39.6587C23.9336 39.3681 24.1693 39.1328 24.4604 39.1328H30.5406C30.8317 39.1328 31.0674 39.3681 31.0674 39.6587V47.9902H41.4186V7.80078H13.5824ZM21.7439 35.7412C21.7439 36.0306 21.5093 36.2647 21.2194 36.2647H18.2436C17.9536 36.2647 17.7191 36.0306 17.7191 35.7412V31.7095C17.7191 31.4201 17.9536 31.186 18.2436 31.186H21.2194C21.5093 31.186 21.7439 31.4201 21.7439 31.7095V35.7412ZM21.7439 28.1484C21.7439 28.4378 21.5093 28.672 21.2194 28.672H18.2436C17.9536 28.672 17.7191 28.4378 17.7191 28.1484V24.118C17.7191 23.8286 17.9536 23.5945 18.2436 23.5945H21.2194C21.5093 23.5945 21.7439 23.8286 21.7439 24.118V28.1484ZM21.7439 20.5557C21.7439 20.8451 21.5093 21.0792 21.2194 21.0792H18.2436C17.9536 21.0792 17.7191 20.8451 17.7191 20.5557V16.5241C17.7191 16.2347 17.9536 16.0005 18.2436 16.0005H21.2194C21.5093 16.0005 21.7439 16.2347 21.7439 16.5241V20.5557ZM21.7439 13.1806C21.7439 13.47 21.5093 13.7041 21.2194 13.7041H18.2436C17.9536 13.7041 17.7191 13.47 17.7191 13.1806V9.14898C17.7191 8.85957 17.9536 8.62546 18.2436 8.62546H21.2194C21.5093 8.62546 21.7439 8.85957 21.7439 9.14898V13.1806ZM29.5647 35.7412C29.5647 36.0306 29.3302 36.2647 29.0403 36.2647H26.0644C25.7745 36.2647 25.54 36.0306 25.54 35.7412V31.7095C25.54 31.4201 25.7745 31.186 26.0644 31.186H29.0403C29.3302 31.186 29.5647 31.4201 29.5647 31.7095V35.7412ZM29.5647 28.1484C29.5647 28.4378 29.3302 28.672 29.0403 28.672H26.0644C25.7745 28.672 25.54 28.4378 25.54 28.1484V24.118C25.54 23.8286 25.7745 23.5945 26.0644 23.5945H29.0403C29.3302 23.5945 29.5647 23.8286 29.5647 24.118V28.1484ZM29.5647 20.5557C29.5647 20.8451 29.3302 21.0792 29.0403 21.0792H26.0644C25.7745 21.0792 25.54 20.8451 25.54 20.5557V16.5241C25.54 16.2347 25.7745 16.0005 26.0644 16.0005H29.0403C29.3302 16.0005 29.5647 16.2347 29.5647 16.5241V20.5557ZM29.5647 13.1806C29.5647 13.47 29.3302 13.7041 29.0403 13.7041H26.0644C25.7745 13.7041 25.54 13.47 25.54 13.1806V9.14898C25.54 8.85957 25.7745 8.62546 26.0644 8.62546H29.0403C29.3302 8.62546 29.5647 8.85957 29.5647 9.14898V13.1806ZM37.2819 35.7412C37.2819 36.0306 37.0474 36.2647 36.7574 36.2647H33.7816C33.4917 36.2647 33.2571 36.0306 33.2571 35.7412V31.7095C33.2571 31.4201 33.4917 31.186 33.7816 31.186H36.7574C37.0474 31.186 37.2819 31.4201 37.2819 31.7095V35.7412ZM37.2819 28.1484C37.2819 28.4378 37.0474 28.672 36.7574 28.672H33.7816C33.4917 28.672 33.2571 28.4378 33.2571 28.1484V24.118C33.2571 23.8286 33.4917 23.5945 33.7816 23.5945H36.7574C37.0474 23.5945 37.2819 23.8286 37.2819 24.118V28.1484ZM37.2819 20.5557C37.2819 20.8451 37.0474 21.0792 36.7574 21.0792H33.7816C33.4917 21.0792 33.2571 20.8451 33.2571 20.5557V16.5241C33.2571 16.2347 33.4917 16.0005 33.7816 16.0005H36.7574C37.0474 16.0005 37.2819 16.2347 37.2819 16.5241V20.5557ZM37.2819 13.1806C37.2819 13.47 37.0474 13.7041 36.7574 13.7041H33.7816C33.4917 13.7041 33.2571 13.47 33.2571 13.1806V9.14898C33.2571 8.85957 33.4917 8.62546 33.7816 8.62546H36.7574C37.0474 8.62546 37.2819 8.85957 37.2819 9.14898V13.1806Z"
    fill="#1F8078"
  />
<path
    d="M49.6295 51.4893H5.98887C5.59877 51.4893 5.28174 51.8057 5.28174 52.1951V55.7727H50.3354V52.1951C50.3366 51.8057 50.0196 51.4893 49.6295 51.4893Z"
    fill="#1F8078"
  />
<path
    d="M4.40069 41.9168V38.7404H11.0595V36.6229H4.40069V33.4465H11.0595V31.3289H4.40069V28.1525H11.0595V26.0349H4.40069V22.8585H11.0595V19.7998H3.95638C2.54212 19.7998 1.39539 20.9445 1.39539 22.3562V48.0343H11.0595V41.9168H4.40069Z"
    fill="#1F8078"
  />
<path
    d="M51.0442 19.7998H43.941V22.8585H50.0106V26.0349H43.941V28.1525H50.0106V31.3289H43.941V33.4465H50.0106V36.6229H43.941V38.7404H50.0106V41.9168H43.941V48.0343H53.6052V22.3562C53.6052 20.9445 52.4584 19.7998 51.0442 19.7998Z"
    fill="#1F8078"
  />
<path
    d="M38.6834 3.09473H16.3168C15.9515 3.09473 15.6556 3.39001 15.6556 3.75471V5.68289H39.3445V3.75471C39.3445 3.39001 39.0487 3.09473 38.6834 3.09473Z"
    fill="#1F8078"
  />
<path
    d="M36.5751 3.33029H18.5432L20.1767 0.506836H34.9416L36.5751 3.33029Z"
    fill="#1F8078"
  />
</svg>
