<svg
  width="57"
  height="51"
  viewBox="0 0 57 51"
  fill="none"
  xmlns="http://www.w3.org/2000/svg"
>
<g clip-path="url(#clip0_2520_31971)">
<path
      d="M56.5841 51H0.411136C0.109954 51 -0.086054 50.752 0.0334629 50.5367L1.67323 47.6311C1.78797 47.4253 2.07959 47.2568 2.32341 47.2568H54.6718C54.9156 47.2568 55.2025 47.4253 55.322 47.6311L56.9618 50.5367C57.086 50.752 56.8853 51 56.5841 51Z"
      fill="#40918B"
    />
<path
      d="M53.9165 3.74312H24.7065C24.5488 3.74312 24.4484 3.49514 24.5105 3.27991L25.3615 0.374312C25.4236 0.16844 25.5718 0 25.6961 0H52.9173C53.0416 0 53.1946 0.16844 53.2567 0.374312L54.1077 3.27991C54.1746 3.49514 54.0694 3.74312 53.9165 3.74312Z"
      fill="#40918B"
    />
<path
      d="M27.159 21.0546H0.305962C0.162542 21.0546 0.0669286 20.8067 0.124297 20.5914L0.908328 17.6858C0.965696 17.48 1.10434 17.3115 1.21907 17.3115H26.2459C26.3606 17.3115 26.4993 17.48 26.5567 17.6858L27.3407 20.5914C27.3981 20.8067 27.3024 21.0546 27.159 21.0546Z"
      fill="#40918B"
    />
<path
      d="M52.8743 23.8623H3.75762C3.06442 23.8623 2.50031 24.4144 2.50031 25.0929V44.1547C2.50031 44.8331 3.06442 45.3852 3.75762 45.3852H52.8743C53.5675 45.3852 54.1316 44.8331 54.1316 44.1547V25.0929C54.1316 24.4144 53.5675 23.8623 52.8743 23.8623ZM11.1055 40.5519C11.1055 40.8186 10.8904 41.0292 10.6179 41.0292H7.76861C7.49611 41.0292 7.28098 40.8186 7.28098 40.5519V28.6956C7.28098 28.4289 7.49611 28.2184 7.76861 28.2184H10.6179C10.8904 28.2184 11.1055 28.4289 11.1055 28.6956V40.5519ZM18.7546 40.5519C18.7546 40.8186 18.5395 41.0292 18.267 41.0292H15.4177C15.1452 41.0292 14.9301 40.8186 14.9301 40.5519V28.6956C14.9301 28.4289 15.1452 28.2184 15.4177 28.2184H18.267C18.5395 28.2184 18.7546 28.4289 18.7546 28.6956V40.5519ZM26.4037 40.5519C26.4037 40.8186 26.1886 41.0292 25.9161 41.0292H23.0668C22.7943 41.0292 22.5791 40.8186 22.5791 40.5519V28.6956C22.5791 28.4289 22.7943 28.2184 23.0668 28.2184H25.9161C26.1886 28.2184 26.4037 28.4289 26.4037 28.6956V40.5519ZM34.0528 40.5519C34.0528 40.8186 33.8376 41.0292 33.5651 41.0292H30.7159C30.4434 41.0292 30.2282 40.8186 30.2282 40.5519V28.6956C30.2282 28.4289 30.4434 28.2184 30.7159 28.2184H33.5651C33.8376 28.2184 34.0528 28.4289 34.0528 28.6956V40.5519ZM41.7018 40.5519C41.7018 40.8186 41.4867 41.0292 41.2142 41.0292H38.3649C38.0924 41.0292 37.8773 40.8186 37.8773 40.5519V28.6956C37.8773 28.4289 38.0924 28.2184 38.3649 28.2184H41.2142C41.4867 28.2184 41.7018 28.4289 41.7018 28.6956V40.5519ZM49.3509 40.5519C49.3509 40.8186 49.1358 41.0292 48.8633 41.0292H46.014C45.7415 41.0292 45.5264 40.8186 45.5264 40.5519V28.6956C45.5264 28.4289 45.7415 28.2184 46.014 28.2184H48.8633C49.1358 28.2184 49.3509 28.4289 49.3509 28.6956V40.5519Z"
      fill="#40918B"
    />
<path
      d="M52.8743 5.14648H25.7487C25.0555 5.14648 24.4914 5.69859 24.4914 6.37703V19.8242C24.4914 20.5026 25.0555 21.0547 25.7487 21.0547H52.8743C53.5675 21.0547 54.1316 20.5026 54.1316 19.8242V6.37703C54.1316 5.69859 53.5675 5.14648 52.8743 5.14648ZM32.3795 17.4333C32.3795 17.6251 32.1644 17.7795 31.8919 17.7795H29.0426C28.7701 17.7795 28.555 17.6251 28.555 17.4333V8.76795C28.555 8.57612 28.7701 8.42171 29.0426 8.42171H31.8919C32.1644 8.42171 32.3795 8.57612 32.3795 8.76795V17.4333ZM41.2238 17.4333C41.2238 17.6251 41.0086 17.7795 40.7361 17.7795H37.8868C37.6143 17.7795 37.3992 17.6251 37.3992 17.4333V8.76795C37.3992 8.57612 37.6143 8.42171 37.8868 8.42171H40.7361C41.0086 8.42171 41.2238 8.57612 41.2238 8.76795V17.4333ZM50.068 17.4333C50.068 17.6251 49.8529 17.7795 49.5804 17.7795H46.7311C46.4586 17.7795 46.2435 17.6251 46.2435 17.4333V8.76795C46.2435 8.57612 46.4586 8.42171 46.7311 8.42171H49.5804C49.8529 8.42171 50.068 8.57612 50.068 8.76795V17.4333Z"
      fill="#40918B"
    />
</g>
<defs>
<clipPath id="clip0_2520_31971">
<rect width="57" height="51" fill="white" />
</clipPath>
</defs>
</svg>
