<svg
  width="57"
  height="50"
  viewBox="0 0 57 50"
  fill="none"
  xmlns="http://www.w3.org/2000/svg"
>
<g clip-path="url(#clip0_2520_32016)">
<path
      d="M56.5841 50.0005H0.411136C0.109954 50.0005 -0.086054 49.7456 0.0334629 49.5245L1.67323 46.5389C1.79275 46.3274 2.08437 46.1543 2.32341 46.1543H54.6718C54.9156 46.1543 55.2025 46.3274 55.322 46.5389L56.9618 49.5245C57.086 49.7456 56.8853 50.0005 56.5841 50.0005Z"
      fill="#40918B"
    />
<path
      d="M48.1988 1.92308H29.3534C29.253 1.92308 29.186 1.79808 29.2291 1.68269L29.7788 0.192308C29.8171 0.0865385 29.9127 0 29.994 0H47.5582C47.6394 0 47.7351 0.0865385 47.7781 0.192308L48.3279 1.68269C48.3661 1.79808 48.2992 1.92308 48.1988 1.92308Z"
      fill="#40918B"
    />
<path
      d="M27.2116 1.92308H8.36617C8.26578 1.92308 8.19885 1.79808 8.24188 1.68269L8.79165 0.192308C8.8299 0.0865385 8.92551 0 9.00678 0H26.571C26.6523 0 26.7479 0.0865385 26.7909 0.192308L27.3407 1.68269C27.3789 1.79808 27.312 1.92308 27.2116 1.92308Z"
      fill="#40918B"
    />
<path
      d="M51.464 4.32715H5.53124C4.88107 4.32715 4.35519 5.35119 4.35519 6.6108V41.9521C4.35519 43.2118 4.88107 44.2358 5.53124 44.2358H51.464C52.1141 44.2358 52.64 43.2118 52.64 41.9521V6.6108C52.64 5.35119 52.1141 4.32715 51.464 4.32715ZM16.1109 38.1204C16.1109 38.481 15.8193 38.7743 15.4607 38.7743H11.3111C10.9525 38.7743 10.6609 38.481 10.6609 38.1204V32.3512C10.6609 31.9906 10.9525 31.6973 11.3111 31.6973H15.4607C15.8193 31.6973 16.1109 31.9906 16.1109 32.3512V38.1204ZM16.1109 27.1637C16.1109 27.5243 15.8193 27.8175 15.4607 27.8175H11.3111C10.9525 27.8175 10.6609 27.5243 10.6609 27.1637V21.3945C10.6609 21.0339 10.9525 20.7406 11.3111 20.7406H15.4607C15.8193 20.7406 16.1109 21.0339 16.1109 21.3945V27.1637ZM16.1109 16.2021C16.1109 16.5627 15.8193 16.856 15.4607 16.856H11.3111C10.9525 16.856 10.6609 16.5627 10.6609 16.2021V10.4329C10.6609 10.0723 10.9525 9.77907 11.3111 9.77907H15.4607C15.8193 9.77907 16.1109 10.0723 16.1109 10.4329V16.2021ZM24.9121 38.1204C24.9121 38.481 24.6205 38.7743 24.2619 38.7743H20.1123C19.7538 38.7743 19.4621 38.481 19.4621 38.1204V32.3512C19.4621 31.9906 19.7538 31.6973 20.1123 31.6973H24.2619C24.6205 31.6973 24.9121 31.9906 24.9121 32.3512V38.1204ZM24.9121 27.1637C24.9121 27.5243 24.6205 27.8175 24.2619 27.8175H20.1123C19.7538 27.8175 19.4621 27.5243 19.4621 27.1637V21.3945C19.4621 21.0339 19.7538 20.7406 20.1123 20.7406H24.2619C24.6205 20.7406 24.9121 21.0339 24.9121 21.3945V27.1637ZM24.9121 16.2021C24.9121 16.5627 24.6205 16.856 24.2619 16.856H20.1123C19.7538 16.856 19.4621 16.5627 19.4621 16.2021V10.4329C19.4621 10.0723 19.7538 9.77907 20.1123 9.77907H24.2619C24.6205 9.77907 24.9121 10.0723 24.9121 10.4329V16.2021ZM37.1459 38.1204C37.1459 38.481 36.8542 38.7743 36.4957 38.7743H32.3461C31.9875 38.7743 31.6959 38.481 31.6959 38.1204V32.3512C31.6959 31.9906 31.9875 31.6973 32.3461 31.6973H36.4957C36.8542 31.6973 37.1459 31.9906 37.1459 32.3512V38.1204ZM37.1459 27.1637C37.1459 27.5243 36.8542 27.8175 36.4957 27.8175H32.3461C31.9875 27.8175 31.6959 27.5243 31.6959 27.1637V21.3945C31.6959 21.0339 31.9875 20.7406 32.3461 20.7406H36.4957C36.8542 20.7406 37.1459 21.0339 37.1459 21.3945V27.1637ZM37.1459 16.2021C37.1459 16.5627 36.8542 16.856 36.4957 16.856H32.3461C31.9875 16.856 31.6959 16.5627 31.6959 16.2021V10.4329C31.6959 10.0723 31.9875 9.77907 32.3461 9.77907H36.4957C36.8542 9.77907 37.1459 10.0723 37.1459 10.4329V16.2021ZM45.9471 38.1204C45.9471 38.481 45.6555 38.7743 45.2969 38.7743H41.1473C40.7887 38.7743 40.4971 38.481 40.4971 38.1204V32.3512C40.4971 31.9906 40.7887 31.6973 41.1473 31.6973H45.2969C45.6555 31.6973 45.9471 31.9906 45.9471 32.3512V38.1204ZM45.9471 27.1637C45.9471 27.5243 45.6555 27.8175 45.2969 27.8175H41.1473C40.7887 27.8175 40.4971 27.5243 40.4971 27.1637V21.3945C40.4971 21.0339 40.7887 20.7406 41.1473 20.7406H45.2969C45.6555 20.7406 45.9471 21.0339 45.9471 21.3945V27.1637ZM45.9471 16.2021C45.9471 16.5627 45.6555 16.856 45.2969 16.856H41.1473C40.7887 16.856 40.4971 16.5627 40.4971 16.2021V10.4329C40.4971 10.0723 40.7887 9.77907 41.1473 9.77907H45.2969C45.6555 9.77907 45.9471 10.0723 45.9471 10.4329V16.2021Z"
      fill="#40918B"
    />
<path d="M54.5523 4.32715H2.44293V7.21176H54.5523V4.32715Z" fill="#40918B" />
<path d="M25.1989 1.44238H10.3788V5.76931H25.1989V1.44238Z" fill="#40918B" />
<path d="M46.1526 1.44238H31.3326V5.76931H46.1526V1.44238Z" fill="#40918B" />
</g>
<defs>
<clipPath id="clip0_2520_32016">
<rect width="57" height="50" fill="white" />
</clipPath>
</defs>
</svg>
