<svg
  width="55"
  height="61"
  viewBox="0 0 55 61"
  fill="none"
  xmlns="http://www.w3.org/2000/svg"
>
<path
    d="M54.6575 34.0148V35.5681H0.809509V34.0148C0.809509 33.2286 1.44812 32.5918 2.23658 32.5918H17.0281V34.4061C17.0281 34.6978 17.2648 34.9337 17.5573 34.9337H20.9038C21.1964 34.9337 21.433 34.6978 21.433 34.4061V32.5918H25.587V34.4061C25.587 34.6978 25.8248 34.9337 26.1174 34.9337H29.4638C29.7564 34.9337 29.993 34.6978 29.993 34.4061V32.5918H34.034V34.4061C34.034 34.6978 34.2707 34.9337 34.5632 34.9337H37.9097C38.2023 34.9337 38.4389 34.6978 38.4389 34.4061V32.5918H53.2305C54.0189 32.5918 54.6575 33.2286 54.6575 34.0148Z"
    fill="#1F8078"
  />
<path
    d="M13.6906 18.8193V55.6514H24.1355V47.2548C24.1355 46.9619 24.3733 46.7247 24.6671 46.7247H30.8011C31.0948 46.7247 31.3327 46.9619 31.3327 47.2548V55.6514H41.7776V18.8193H13.6906ZM21.4336 51.7442C21.4336 52.0359 21.1969 52.2719 20.9044 52.2719H17.5579C17.2654 52.2719 17.0287 52.0359 17.0287 51.7442V47.2477C17.0287 46.956 17.2654 46.72 17.5579 46.72H20.9044C21.1969 46.72 21.4336 46.956 21.4336 47.2477V51.7442ZM21.4336 42.7061C21.4336 42.9978 21.1969 43.2337 20.9044 43.2337H17.5579C17.2654 43.2337 17.0287 42.9978 17.0287 42.7061V38.2095C17.0287 37.9178 17.2654 37.6818 17.5579 37.6818H20.9044C21.1969 37.6818 21.4336 37.9178 21.4336 38.2095V42.7061ZM29.9936 42.7061C29.9936 42.9978 29.757 43.2337 29.4644 43.2337H26.1179C25.8254 43.2337 25.5875 42.9978 25.5875 42.7061V38.2095C25.5875 37.9178 25.8254 37.6818 26.1179 37.6818H29.4644C29.757 37.6818 29.9936 37.9178 29.9936 38.2095V42.7061ZM38.4395 51.7442C38.4395 52.0359 38.2028 52.2719 37.9103 52.2719H34.5638C34.2713 52.2719 34.0346 52.0359 34.0346 51.7442V47.2477C34.0346 46.956 34.2713 46.72 34.5638 46.72H37.9103C38.2028 46.72 38.4395 46.956 38.4395 47.2477V51.7442ZM38.4395 42.7061C38.4395 42.9978 38.2028 43.2337 37.9103 43.2337H34.5638C34.2713 43.2337 34.0346 42.9978 34.0346 42.7061V38.2095C34.0346 37.9178 34.2713 37.6818 34.5638 37.6818H37.9103C38.2028 37.6818 38.4395 37.9178 38.4395 38.2095V42.7061ZM34.0346 21.6083C34.0346 21.3166 34.2713 21.0807 34.5638 21.0807H37.9103C38.2028 21.0807 38.4395 21.3166 38.4395 21.6083V26.1049C38.4395 26.3966 38.2028 26.6326 37.9103 26.6326H34.5638C34.2713 26.6326 34.0346 26.3966 34.0346 26.1049V21.6083ZM25.5875 21.6083C25.5875 21.3166 25.8254 21.0807 26.1179 21.0807H29.4644C29.757 21.0807 29.9936 21.3166 29.9936 21.6083V26.1049C29.9936 26.3966 29.757 26.6326 29.4644 26.6326H26.1179C25.8254 26.6326 25.5875 26.3966 25.5875 26.1049V21.6083ZM25.5875 29.9089C25.5875 29.6172 25.8254 29.3812 26.1179 29.3812H29.4644C29.757 29.3812 29.9936 29.6172 29.9936 29.9089V34.4055C29.9936 34.6972 29.757 34.9332 29.4644 34.9332H26.1179C25.8254 34.9332 25.5875 34.6972 25.5875 34.4055V29.9089ZM17.0287 21.6083C17.0287 21.3166 17.2654 21.0807 17.5579 21.0807H20.9044C21.1969 21.0807 21.4336 21.3166 21.4336 21.6083V26.1049C21.4336 26.3966 21.1969 26.6326 20.9044 26.6326H17.5579C17.2654 26.6326 17.0287 26.3966 17.0287 26.1049V21.6083ZM17.0287 29.9089C17.0287 29.6172 17.2654 29.3812 17.5579 29.3812H20.9044C21.1969 29.3812 21.4336 29.6172 21.4336 29.9089V34.4055C21.4336 34.6972 21.1969 34.9332 20.9044 34.9332H17.5579C17.2654 34.9332 17.0287 34.6972 17.0287 34.4055V29.9089ZM38.4395 34.4055C38.4395 34.6972 38.2028 34.9332 37.9103 34.9332H34.5638C34.2713 34.9332 34.0346 34.6972 34.0346 34.4055V29.9089C34.0346 29.6172 34.2713 29.3812 34.5638 29.3812H37.9103C38.2028 29.3812 38.4395 29.6172 38.4395 29.9089V34.4055Z"
    fill="#1F8078"
  />
<path
    d="M43.884 16.4761H11.5823V14.9239C11.5823 14.1378 12.2209 13.501 13.0094 13.501H42.457C43.2454 13.501 43.884 14.1378 43.884 14.9239V16.4761Z"
    fill="#1F8078"
  />
<path
    d="M53.8959 57.627H1.57004C1.17641 57.627 0.856506 57.9459 0.856506 58.3384V60.678H54.6094V58.3384C54.6094 57.9459 54.2895 57.627 53.8959 57.627Z"
    fill="#1F8078"
  />
<path
    d="M28.2556 0.531175L29.6363 3.32017C29.691 3.43164 29.7968 3.50753 29.9205 3.52532L33.0077 3.97236C33.3169 4.01742 33.4406 4.39569 33.217 4.61388L30.9836 6.78508C30.8945 6.87164 30.854 6.99615 30.8754 7.11829L31.4023 10.1836C31.4546 10.4907 31.1323 10.7255 30.8552 10.5796L28.0938 9.13177C27.9844 9.07367 27.8524 9.07367 27.743 9.13177L24.9816 10.5796C24.7045 10.7243 24.3823 10.4907 24.4346 10.1836L24.9614 7.11829C24.9828 6.99615 24.9424 6.87164 24.8532 6.78508L22.6186 4.61388C22.3951 4.39688 22.5188 4.01742 22.828 3.97236L25.9152 3.52532C26.0377 3.50753 26.1447 3.43045 26.1994 3.32017L27.5789 0.531175C27.718 0.251327 28.1176 0.251327 28.2556 0.531175Z"
    fill="#1F8078"
  />
<path
    d="M38.5909 4.83867L39.5256 6.72765C39.5624 6.80235 39.635 6.85453 39.7182 6.86639L41.8089 7.16877C42.0182 7.1996 42.1014 7.45573 41.9504 7.60277L40.4377 9.07316C40.3771 9.13126 40.3497 9.21545 40.364 9.29846L40.7207 11.3748C40.7564 11.5823 40.5376 11.7412 40.3497 11.6428L38.4803 10.6621C38.4053 10.623 38.3173 10.623 38.2424 10.6621L36.3729 11.6428C36.1851 11.7412 35.9662 11.5823 36.0019 11.3748L36.3587 9.29846C36.3729 9.21545 36.3456 9.13126 36.2849 9.07316L34.7723 7.60277C34.6212 7.45573 34.7045 7.19841 34.9138 7.16877L37.0044 6.86639C37.0877 6.85453 37.159 6.80235 37.1971 6.72765L38.1318 4.83867C38.2269 4.65013 38.4981 4.65013 38.5909 4.83867Z"
    fill="#1F8078"
  />
<path
    d="M17.7013 4.83867L18.6361 6.72765C18.6729 6.80235 18.7455 6.85453 18.8287 6.86639L20.9194 7.16877C21.1287 7.1996 21.2119 7.45573 21.0609 7.60277L19.5482 9.07316C19.4875 9.13126 19.4602 9.21545 19.4745 9.29846L19.8312 11.3748C19.8669 11.5823 19.6481 11.7412 19.4602 11.6428L17.5907 10.6621C17.5158 10.623 17.4278 10.623 17.3529 10.6621L15.4834 11.6428C15.2955 11.7412 15.0767 11.5823 15.1124 11.3748L15.4692 9.29846C15.4834 9.21545 15.4561 9.13126 15.3954 9.07316L13.8827 7.60277C13.7317 7.45573 13.8149 7.19841 14.0242 7.16877L16.1149 6.86639C16.1981 6.85453 16.2695 6.80235 16.3076 6.72765L17.2423 4.83867C17.3374 4.65013 17.6074 4.65013 17.7013 4.83867Z"
    fill="#1F8078"
  />
<path d="M13.7012 37.5557H3.47388V55.6984H13.7012V37.5557Z" fill="#1F8078" />
<path d="M51.9942 37.5557H41.7668V55.6984H51.9942V37.5557Z" fill="#1F8078" />
<path
    d="M9.8604 45.9839H7.31308C7.02053 45.9839 6.78387 45.7479 6.78387 45.4562V41.9652C6.78387 41.6735 7.02053 41.4375 7.31308 41.4375H9.86158C10.1541 41.4375 10.3908 41.6735 10.3908 41.9652V45.4562C10.3908 45.7467 10.1529 45.9839 9.8604 45.9839Z"
    fill="white"
  />
<path
    d="M9.8604 51.8149H7.31308C7.02053 51.8149 6.78387 51.5789 6.78387 51.2872V47.7962C6.78387 47.5045 7.02053 47.2686 7.31308 47.2686H9.86158C10.1541 47.2686 10.3908 47.5045 10.3908 47.7962V51.2872C10.3908 51.5777 10.1529 51.8149 9.8604 51.8149Z"
    fill="white"
  />
<path
    d="M48.1534 45.9839H45.6049C45.3123 45.9839 45.0757 45.7479 45.0757 45.4562V41.9652C45.0757 41.6735 45.3123 41.4375 45.6049 41.4375H48.1534C48.4459 41.4375 48.6826 41.6735 48.6826 41.9652V45.4562C48.6838 45.7467 48.4459 45.9839 48.1534 45.9839Z"
    fill="white"
  />
<path
    d="M48.1534 51.8149H45.6049C45.3123 51.8149 45.0757 51.5789 45.0757 51.2872V47.7962C45.0757 47.5045 45.3123 47.2686 45.6049 47.2686H48.1534C48.4459 47.2686 48.6826 47.5045 48.6826 47.7962V51.2872C48.6838 51.5777 48.4459 51.8149 48.1534 51.8149Z"
    fill="white"
  />
</svg>
