<svg
  width="67"
  height="61"
  viewBox="0 0 67 61"
  fill="none"
  xmlns="http://www.w3.org/2000/svg"
>
<g clip-path="url(#clip0_2520_31382)">
<path
      d="M66.1949 57.0029H0.805143C0.360973 57.0029 0 57.3596 0 57.7985V60.9983H67V57.7985C67 57.3596 66.639 57.0029 66.1949 57.0029Z"
      fill="#1F8078"
    />
<path
      d="M65.1213 51.0378V54.2375H1.87866V51.0378C1.87866 50.5976 2.23963 50.2422 2.68381 50.2422H64.3162C64.7604 50.2422 65.1213 50.5976 65.1213 51.0378Z"
      fill="#1F8078"
    />
<path
      d="M54.7497 23.1914V27.1867H45.6208V23.9777C45.6208 23.5534 45.2732 23.2086 44.8425 23.2086H39.5634C39.134 23.2086 38.7851 23.5534 38.7851 23.9777V27.1867H35.0197V23.9777C35.0197 23.5534 34.6708 23.2086 34.2414 23.2086H28.9624C28.5316 23.2086 28.184 23.5534 28.184 23.9777V27.1867H3.22058V23.987C3.22058 23.5468 3.58155 23.1914 4.02572 23.1914H54.7497Z"
      fill="#1F8078"
    />
<path
      d="M45.6208 27.1865V29.1941C45.6208 29.6185 45.2732 29.9632 44.8424 29.9632H39.5634C39.134 29.9632 38.7851 29.6185 38.7851 29.1941V27.1865H35.0197V29.1941C35.0197 29.6185 34.6708 29.9632 34.2414 29.9632H28.9623C28.5316 29.9632 28.184 29.6185 28.184 29.1941V27.1865H5.36761V50.2594H54.7497V27.1865H45.6208ZM38.7851 33.5329C38.7851 33.1086 39.134 32.7638 39.5634 32.7638H44.8424C45.2732 32.7638 45.6208 33.1086 45.6208 33.5329V38.7495C45.6208 39.1738 45.2732 39.5186 44.8424 39.5186H39.5634C39.134 39.5186 38.7851 39.1738 38.7851 38.7495V33.5329ZM28.184 33.5329C28.184 33.1086 28.5316 32.7638 28.9623 32.7638H34.2414C34.6708 32.7638 35.0197 33.1086 35.0197 33.5329V38.7495C35.0197 39.1738 34.6708 39.5186 34.2414 39.5186H28.9623C28.5316 39.5186 28.184 39.1738 28.184 38.7495V33.5329ZM12.3455 29.5217C12.3455 29.1106 12.6823 28.7778 13.0983 28.7778H14.2765C14.6925 28.7778 15.0293 29.1106 15.0293 29.5217V48.0569C15.0293 48.468 14.6925 48.8008 14.2765 48.8008H13.0983C12.6823 48.8008 12.3455 48.468 12.3455 48.0569V29.5217ZM33.5517 50.2422V44.893C33.5517 43.0273 35.0814 41.5156 36.9695 41.5156C37.9128 41.5156 38.7676 41.8935 39.3863 42.5048C40.0049 43.1161 40.3873 43.9608 40.3873 44.893V50.2422H33.5517Z"
      fill="#1F8078"
    />
<path
      d="M54.7497 23.2086H20.9337V0.544125C20.9337 0.103883 21.4383 -0.153366 21.8019 0.102557L54.7256 23.1914L54.7497 23.2086Z"
      fill="#1F8078"
    />
<path d="M40.3873 50.2422H33.5516V50.2594H40.3873V50.2422Z" fill="white" />
<path
      d="M61.47 41.2422H54.7498V50.2592H62.2644V42.0272C62.2644 41.5936 61.9088 41.2422 61.47 41.2422ZM56.6284 43.4209C56.6284 43.2432 56.7747 43.0986 56.9545 43.0986H59.6571C59.8369 43.0986 59.9832 43.2432 59.9832 43.4209V46.0915C59.9832 46.2692 59.8369 46.4137 59.6571 46.4137H56.9545C56.7747 46.4137 56.6284 46.2692 56.6284 46.0915V43.4209Z"
      fill="#1F8078"
    />
<path
      d="M3.74662 41.2422H10.4669V50.2592H2.95221V42.0272C2.95221 41.5936 3.30781 41.2422 3.74662 41.2422Z"
      fill="#1F8078"
    />
</g>
<defs>
<clipPath id="clip0_2520_31382">
<rect width="67" height="61" fill="white" />
</clipPath>
</defs>
</svg>
