<svg
  width="65"
  height="69"
  viewBox="0 0 65 69"
  fill="none"
  xmlns="http://www.w3.org/2000/svg"
>
<path
    d="M52.5 36.0701V57.7498C52.4983 58.4266 52.3147 59.0904 51.9683 59.6718C51.622 60.2532 51.1256 60.7308 50.5312 61.0545C49.9862 61.355 49.3723 61.5084 48.75 61.4998H37.5C37.0027 61.4998 36.5258 61.3022 36.1742 60.9506C35.8225 60.599 35.625 60.1221 35.625 59.6248V48.3748C35.625 47.8775 35.4274 47.4006 35.0758 47.049C34.7242 46.6973 34.2473 46.4998 33.75 46.4998H26.25C25.7527 46.4998 25.2758 46.6973 24.9242 47.049C24.5725 47.4006 24.375 47.8775 24.375 48.3748V59.6248C24.375 60.1221 24.1774 60.599 23.8258 60.9506C23.4742 61.3022 22.9973 61.4998 22.5 61.4998H11.25C10.718 61.5018 10.1918 61.3899 9.70666 61.1716C9.22154 60.9533 8.78879 60.6336 8.43749 60.2342C7.82787 59.5139 7.49541 58.5997 7.49999 57.656V36.0701C7.50015 35.5498 7.60859 35.0352 7.81841 34.5591C8.02823 34.0829 8.33484 33.6557 8.71874 33.3045L27.4687 16.2654C28.16 15.633 29.063 15.2822 30 15.2822C30.9369 15.2822 31.8399 15.633 32.5312 16.2654L51.2812 33.3045C51.6651 33.6557 51.9717 34.0829 52.1816 34.5591C52.3914 35.0352 52.4998 35.5498 52.5 36.0701Z"
    fill="#1F8078"
  />
<rect x="33" y="1" width="31" height="31" rx="15.5" fill="#1F8078" />
<path
    d="M50.7139 20.6006C51.1528 20.1685 50.916 19.176 50.199 18.0295C50.4596 17.9888 50.7032 17.9266 50.8875 17.8314C51.5504 17.4891 51.9981 16.8654 52.3369 16.2203C52.7012 15.5282 52.9456 14.7674 53.421 14.1372C53.5012 14.0307 53.5815 13.9352 53.6615 13.8453C54.687 13.9682 55.5057 14.1887 55.5057 14.1887L55.8185 13.3937C55.4237 13.252 55.0188 13.1399 54.6073 13.0583C54.8594 12.915 55.0239 12.8703 55.0239 12.8703L54.7274 12.0689C54.2521 12.2698 53.8663 12.5662 53.5433 12.9212C52.3361 12.8537 51.1203 13.0941 50.1612 13.8379C49.44 14.3975 48.9528 15.1732 48.4944 15.9493C48.0883 15.5507 47.6558 15.1799 47.1998 14.8395C47.2863 14.6973 47.379 14.5696 47.4787 14.471C48.0815 13.8775 48.8768 13.498 49.3984 12.8189C50.4949 11.3929 49.6929 9.15753 48.7909 8C48.6292 8.15571 48.3619 8.38264 48.1607 8.56181C49.1195 9.54384 49.7901 11.2632 49.0387 12.5479C48.6187 13.266 47.8427 13.7164 47.3001 14.3333C47.2063 14.4405 47.1224 14.5761 47.0464 14.7259C45.6274 13.7082 44.3252 13.2987 43.8092 13.8069C43.7579 13.8593 43.7157 13.9198 43.6843 13.986L43.6823 13.9841L43.6684 14.0245C43.6492 14.0683 43.6317 14.1138 43.6198 14.1635L40.069 24.3908L50.4296 20.7684L50.4268 20.7656C50.5382 20.7297 50.6362 20.6769 50.7139 20.6006ZM42.13 23.0716L41.2652 22.6686L41.8488 20.9872L44.5253 22.234L42.13 23.0716ZM46.9203 21.3966L42.4329 19.3057L43.0165 17.6245L46.3698 19.3077C44.3682 18.0049 43.6001 15.9428 43.6001 15.9428L43.7996 15.3682C44.1542 16.2655 44.9345 17.3829 46.0067 18.4375C47.0879 19.5018 48.2338 20.2727 49.1498 20.6172L46.9203 21.3966ZM48.6439 16.1007C49.1124 15.429 49.5954 14.751 50.2669 14.2686C50.9061 13.8091 51.9438 13.7252 52.9275 13.7803C52.5952 14.3608 52.3496 15.0048 52.1292 15.6234C51.8627 16.3723 51.5055 17.1489 50.8244 17.6081C50.6407 17.7319 50.3833 17.8223 50.1083 17.8893C49.7305 17.3103 49.2348 16.6981 48.6439 16.1007Z"
    fill="white"
  />
<path
    d="M46.0132 13.3685C46.2964 13.3685 45.4474 12.5207 45.5893 11.7772C46.133 11.7353 47.3759 11.9803 46.6524 10.9867C47.4708 11.1308 47.8947 10.5199 47.1221 9.94082C47.3793 9.9589 47.7789 9.47396 47.492 9.41264C46.573 9.21793 46.2133 9.71502 46.7966 10.432C46.1833 10.3178 45.6834 10.6029 46.144 11.2433C44.3733 11.0226 45.3807 13.3685 46.0132 13.3685Z"
    fill="white"
  />
<path
    d="M52.0926 12.6162C52.358 12.4964 51.9078 11.7048 51.7614 11.5025C52.8814 11.3827 52.839 11.0489 52.1367 10.334C54.046 10.3981 52.1958 9.31292 52.4552 8.88337C52.6799 8.5109 53.3691 8.90145 53.3053 8.69402C53.0899 8.00024 51.0473 8.46936 52.3399 9.76479C51.2118 9.78684 51.1035 10.1556 51.9443 10.9201C50.4798 10.9362 51.6747 12.8044 52.0926 12.6162Z"
    fill="white"
  />
<path
    d="M56.9395 15.4114C56.4924 15.5366 56.4235 15.4897 56.4831 15.9348C55.4505 15.4595 54.358 14.7985 55.0209 16.5498C53.8481 15.8515 53.9066 16.463 53.6873 17.4693C53.4019 17.2469 52.9964 16.6608 52.9964 16.6608L52.5668 17.0257C52.5668 17.0257 53.3539 18.1357 53.7424 18.0727C54.0841 18.0176 54.2701 17.3718 54.289 16.8027C55.377 17.2619 55.8978 17.3232 55.4002 15.9803C56.27 16.4689 57.3366 16.8999 56.9395 15.4114Z"
    fill="white"
  />
<path
    d="M41.2138 10.3848L42.013 11.1842L41.2138 11.9834L40.4144 11.1842L41.2138 10.3848Z"
    fill="white"
  />
<path
    d="M43.1275 13.7082L42.3277 14.5074L41.5283 13.7077L42.328 12.9082L43.1275 13.7082Z"
    fill="white"
  />
<path
    d="M44.3695 9.13086L45.1687 9.93005L44.3693 10.7298L43.5701 9.93005L44.3695 9.13086Z"
    fill="white"
  />
<path
    d="M53.0722 20.2887L52.2725 19.4892L53.0717 18.6895L53.8714 19.4889L53.0722 20.2887Z"
    fill="white"
  />
<path
    d="M51.2897 23.0303L50.4905 22.2311L51.2897 21.4316L52.0892 22.2311L51.2897 23.0303Z"
    fill="white"
  />
<path
    d="M54.7969 23.6617L53.9971 22.8623L54.796 22.0625L55.5958 22.862L54.7969 23.6617Z"
    fill="white"
  />
<path
    d="M55.5954 20.0205L54.7962 19.2211L55.5954 18.4219L56.3946 19.2211L55.5954 20.0205Z"
    fill="white"
  />
<path
    d="M54.2612 9.97852L55.0604 10.7777L54.2609 11.5772L53.4617 10.7777L54.2612 9.97852Z"
    fill="white"
  />
<rect
    x="33"
    y="1"
    width="31"
    height="31"
    rx="15.5"
    stroke="white"
    stroke-width="2"
  />
</svg>
