<svg
  width="56"
  height="56"
  viewBox="0 0 56 56"
  fill="none"
  xmlns="http://www.w3.org/2000/svg"
>
<path
    d="M54.2481 35.2247C52.1785 35.2181 50.1063 35.2788 48.0407 35.1864C47.4047 35.1574 46.6439 34.8734 46.184 34.4443C45.9186 34.196 45.6558 33.9465 45.3943 33.6929L39.2801 27.3189C39.0856 27.1168 38.9766 26.8461 38.9766 26.5635V24.6567C38.9766 24.4586 39.1369 24.2975 39.334 24.2975H42.1132C42.3103 24.2975 42.4706 24.4586 42.4706 24.6567V26.413C42.4706 26.7088 42.5901 26.9914 42.8017 27.196L47.7056 31.9525L47.9119 32.1532H54.3506V31.9261L54.3243 31.8878V22.7776H54.3506V22.7235C54.3506 21.951 53.7278 21.3251 52.9591 21.3251H38.7138V16.9595C38.7138 16.7456 38.5403 16.5713 38.3275 16.5713H6.381C6.16813 16.5713 5.99468 16.7456 5.99468 16.9595V28.5879H3.89224V28.7384C3.88436 28.7397 3.87648 28.7397 3.86859 28.7397V32.2681C3.87648 32.2628 3.88436 32.2575 3.89224 32.2522V32.5494H39.899C40.0199 32.6299 40.1329 32.7157 40.2354 32.8055C41.8753 34.2475 43.3707 35.8559 44.9895 37.323C45.4061 37.7006 46.0657 37.9727 46.6255 37.9951C48.6123 38.0757 50.6057 38.0281 52.5951 38.0294H55.4925V35.2247H54.2481ZM49.1313 24.3504C49.1313 24.3134 49.1905 24.2843 49.2654 24.2843H52.4584C52.5333 24.2843 52.5925 24.3134 52.5925 24.3504V26.6731C52.5925 26.7088 52.5333 26.7392 52.4584 26.7392H49.2654C49.1905 26.7392 49.1313 26.7088 49.1313 26.6731V24.3504ZM44.5323 24.419C44.5323 24.3438 44.5914 24.2843 44.6663 24.2843H47.8594C47.9343 24.2843 47.9934 24.3438 47.9934 24.419V26.6045C47.9934 26.6784 47.9343 26.7392 47.8594 26.7392H44.6663C44.5914 26.7392 44.5323 26.6784 44.5323 26.6045V24.419ZM16.244 24.3424C16.244 24.5722 16.0588 24.7584 15.8301 24.7584H9.16804C8.9394 24.7584 8.75412 24.5722 8.75412 24.3424V20.0244C8.75412 19.7946 8.9394 19.6084 9.16804 19.6084H15.8301C16.0588 19.6084 16.244 19.7946 16.244 20.0244V24.3424ZM26.0992 24.3424C26.0992 24.5722 25.9139 24.7584 25.6853 24.7584H19.0232C18.7945 24.7584 18.6093 24.5722 18.6093 24.3424V20.0244C18.6093 19.7946 18.7945 19.6084 19.0232 19.6084H25.6853C25.9139 19.6084 26.0992 19.7946 26.0992 20.0244V24.3424ZM35.9543 28.8321C35.9543 29.0619 35.7691 29.2481 35.5404 29.2481H28.8783C28.6497 29.2481 28.4644 29.0619 28.4644 28.8321V20.0244C28.4644 19.7946 28.6497 19.6084 28.8783 19.6084H35.5404C35.7691 19.6084 35.9543 19.7946 35.9543 20.0244V28.8321Z"
    fill="#1F8078"
  />
<path
    d="M42.1788 55.658C41.0868 55.1654 39.962 54.7323 38.9174 54.1539C38.3983 53.866 38.0948 53.7551 37.5666 54.1565C35.2815 55.8877 32.0398 55.8719 29.7061 54.1407C29.1187 53.7049 28.7193 53.6257 28.0688 54.1103C25.722 55.8574 22.8338 55.889 20.4212 54.2186C19.7708 53.7683 19.4015 53.9307 18.7511 54.2543C17.6434 54.8062 16.4069 55.1311 15.1914 55.4097C14.6435 55.5352 13.972 55.4163 13.884 54.5712C13.7973 53.738 14.2585 53.3576 14.9812 53.3326C16.4069 53.2824 17.5567 52.7093 18.5671 51.7268C19.1966 51.1154 19.8536 51.1775 20.5921 51.7004C21.3844 52.2616 22.2385 52.8308 23.1531 53.1028C24.973 53.6429 26.467 52.8664 27.7561 51.575C28.7285 50.6004 29.1371 50.5806 30.0504 51.6159C32.0345 53.8647 35.6639 53.8304 37.267 51.4508C37.832 50.6123 38.5324 50.6519 39.1684 51.4284C40.0343 52.4835 41.0408 53.2111 42.4757 53.256C43.2155 53.2797 43.9461 53.5293 43.9514 54.4695C43.954 55.1614 43.3364 55.4718 42.1788 55.658Z"
    fill="#1F8078"
  />
<path
    d="M37.6886 42.0468C36.8239 41.6203 35.9357 41.2334 35.1078 40.7435C34.8582 40.5956 34.644 40.1651 34.6387 39.8601C34.5993 37.7156 34.6177 35.5711 34.6177 33.2814C35.619 33.2814 36.5204 33.247 37.4152 33.3064C37.6386 33.321 38.0249 33.6366 38.0276 33.8175C38.067 36.473 38.0552 39.1299 38.0552 41.7867C37.933 41.8725 37.8108 41.9597 37.6886 42.0468Z"
    fill="#1F8078"
  />
<path
    d="M9.30605 42.0468C8.44142 41.6203 7.55315 41.2334 6.72531 40.7435C6.47565 40.5956 6.26146 40.1651 6.25621 39.8601C6.21679 37.7156 6.23518 35.5711 6.23518 33.2814C7.23647 33.2814 8.13788 33.247 9.03273 33.3064C9.25612 33.321 9.64244 33.6366 9.64507 33.8175C9.68449 36.473 9.67266 39.1299 9.67266 41.7867C9.55046 41.8725 9.42825 41.9597 9.30605 42.0468Z"
    fill="#1F8078"
  />
<path
    d="M43.2816 14.1943C43.2211 13.4971 42.9018 13.023 42.1831 12.8553C38.3777 11.9666 35.1977 9.89214 32.1886 7.54297C30.3595 6.1155 28.6198 4.56656 28.0468 2.08137C27.7972 0.998561 26.8984 0.471681 25.6737 0.508655C23.4872 0.577321 21.298 0.529783 19.1102 0.528462C16.2404 0.528462 16.2417 0.528462 15.1471 3.1655C15.0551 3.38603 14.9553 3.60919 14.8186 3.80199C11.5717 8.34187 7.00675 10.9816 1.86761 12.7325C0.470809 13.2079 0.172526 13.4601 0.42219 15.124C0.440586 15.124 0.458982 15.124 0.476065 15.124V15.5148H43.3131V14.1943H43.2816Z"
    fill="#1F8078"
  />
<path
    d="M53.3899 46.3014C52.0009 46.2763 50.9996 45.6187 50.1889 44.5253C49.5621 43.6815 48.7987 43.7079 48.1719 44.5319C47.2416 45.7534 46.0616 46.3555 44.49 46.3172C42.9723 46.2816 41.8554 45.616 40.904 44.5121C40.2799 43.7885 39.6137 43.6881 38.8804 44.417C36.3615 46.9194 34.3024 47.0475 31.6205 44.7075C30.6888 43.8954 30.1475 44.0473 29.3328 44.8066C26.9281 47.0475 24.4236 46.8771 22.2265 44.4197C21.6234 43.7462 20.7745 43.6868 20.3265 44.4461C18.8482 46.9471 14.9416 46.9048 13.0521 44.6124C12.2833 43.6815 11.7499 43.7132 10.9063 44.5385C9.83533 45.587 8.68556 46.3978 7.05355 46.3119H7.04961C6.83148 46.3 6.65277 46.4704 6.65277 46.6896C6.65277 47.812 7.7145 48.6189 8.792 48.3283C9.60275 48.1105 10.4043 47.7037 11.1953 47.0937C11.8221 46.6104 12.2531 46.7979 12.7564 47.2112C14.7866 48.875 18.5657 48.9239 20.6537 47.264C20.9191 47.0527 21.6326 47.0739 21.9217 47.2851C23.9965 48.8077 27.4064 48.9609 29.5443 47.4449C30.2841 46.9207 30.7388 46.889 31.5167 47.363C34.0422 48.9054 36.598 48.9767 39.0486 47.132C39.5493 46.7556 39.9606 46.6592 40.4993 47.1069C42.6964 48.9397 46.5504 48.9186 48.5845 47.2204C48.821 47.0224 49.4071 47.1227 49.7829 47.2402C50.9366 47.6007 52.0469 48.1105 53.2125 48.4181C53.9036 48.6004 54.7538 48.5409 54.8156 47.5334C54.8708 46.617 54.1809 46.3159 53.3899 46.3014Z"
    fill="#1F8078"
  />
</svg>
