<svg
  width="55"
  height="61"
  viewBox="0 0 55 61"
  fill="none"
  xmlns="http://www.w3.org/2000/svg"
>
<path
    d="M44.3988 18.353C44.3988 20.1625 44.3609 21.7023 44.4147 23.2385C44.4417 24.062 44.1835 24.3636 43.3395 24.3537C40.3913 24.3168 37.4431 24.3722 34.4961 24.3205C33.9946 24.3119 33.3976 24.0608 33.0147 23.7247C29.8096 20.8998 26.6339 18.0404 23.4778 15.1613C22.7181 14.4683 21.9388 14.1163 20.8807 14.1803C19.3576 14.2751 17.8199 14.1544 16.2932 14.2344C15.755 14.2627 15.1299 14.4843 14.7164 14.829C11.4061 17.5825 8.13497 20.3816 4.85894 23.1782C3.34815 24.4682 1.85204 25.7803 0.342468 27.0888L1.69056 28.444C2.04043 28.524 2.41109 28.3739 2.8209 27.8926C3.09492 27.5725 3.52063 27.3842 4.08213 27.0026C4.08947 26.9977 4.09681 26.9916 4.10415 26.9866C4.10782 26.9842 4.11149 26.9805 4.11639 26.978V39.308H12.0483C12.0532 39.2046 12.0594 39.1074 12.0655 39.0163H9.7999C9.61885 39.0163 9.47083 38.8686 9.47083 38.6852V32.1638C9.47083 31.0425 10.3749 30.1328 11.4893 30.1328H12.0863C12.085 30.0479 12.0838 29.9617 12.0826 29.8768C12.0679 28.8896 12.4325 28.5167 13.3977 28.577C14.2528 28.6311 15.1127 28.6016 15.9715 28.5893C19.2696 28.5425 18.8585 28.5548 18.861 31.5115C18.8646 34.0902 18.8622 36.669 18.8622 39.2637H50.82V26.9226C50.9485 27.0211 51.072 27.1171 51.1919 27.2094C51.8818 27.7399 52.4556 28.1806 53.1113 28.6853C53.6189 28.1806 54.1034 27.6956 54.6575 27.1442C51.2041 24.1839 47.8816 21.338 44.3988 18.353ZM28.9031 34.7389C27.949 34.7389 27.0156 34.7574 26.0895 34.7414V38.6852C26.0895 38.8686 25.9427 39.0163 25.7605 39.0163H20.7069C20.5247 39.0163 20.3767 38.8686 20.3767 38.6852V32.1638C20.3767 31.0425 21.2807 30.1328 22.3951 30.1328H24.0711C24.4613 30.1328 24.8258 30.2448 25.1341 30.4369C25.1892 30.3926 25.243 30.347 25.2895 30.3015C25.3029 30.2879 25.3335 30.2904 25.3641 30.2941C25.3763 30.2965 25.3886 30.2978 25.3996 30.299C26.5678 30.3704 27.7361 30.443 28.9031 30.5169V34.7389ZM37.4406 33.4009C37.437 33.8034 37.4309 34.2145 37.4309 34.6367V34.638H35.958V38.6852C35.958 38.8686 35.81 39.0163 35.6277 39.0163H30.5742C30.3919 39.0163 30.2451 38.8686 30.2451 38.6852V32.1638C30.2451 31.0425 31.1479 30.1328 32.2636 30.1328H33.9395C34.2197 30.1328 34.4863 30.1907 34.7286 30.2953H34.7298C35.3561 30.2867 35.9825 30.2744 36.6014 30.3372C36.8987 30.3667 37.3721 30.8 37.3929 31.0782C37.3978 31.1446 37.4027 31.2111 37.4076 31.2763C37.4162 31.4081 37.4235 31.5398 37.4284 31.6715V31.6752C37.4516 32.2401 37.448 32.8125 37.4406 33.4009ZM45.8252 38.6852C45.8252 38.8686 45.6772 39.0163 45.4962 39.0163H40.4414C40.2604 39.0163 40.1124 38.8686 40.1124 38.6852V32.1638C40.1124 31.0425 41.0164 30.1328 42.1308 30.1328H43.8068C44.1028 30.1328 44.3842 30.1968 44.6374 30.3138H44.6386C44.745 30.3187 44.8515 30.3261 44.9579 30.3347C44.9665 30.3359 44.975 30.3359 44.9848 30.3384C44.9934 30.3409 45.0032 30.3421 45.0117 30.3445C45.0337 30.3495 45.057 30.3556 45.0802 30.3642C45.0961 30.3692 45.112 30.3766 45.1279 30.3839C45.1475 30.3926 45.1683 30.4024 45.1879 30.4123C45.2246 30.4332 45.2613 30.4553 45.298 30.4812C45.3212 30.4972 45.3457 30.5144 45.3677 30.5329C45.4387 30.5883 45.5047 30.651 45.5585 30.7151C45.5732 30.7323 45.5879 30.7508 45.6014 30.7692C45.6148 30.7864 45.627 30.8049 45.6381 30.8234C45.6576 30.8541 45.6735 30.8861 45.6845 30.9157C45.6907 30.9305 45.6955 30.9452 45.6992 30.96C45.7017 30.9748 45.7041 30.9883 45.7053 31.0019C45.709 31.0486 45.7115 31.0954 45.7139 31.1409C45.7176 31.1865 45.72 31.232 45.7212 31.2788C45.7261 31.3711 45.7298 31.4634 45.7335 31.557C45.7335 31.557 45.7335 31.5582 45.7347 31.5607C45.7934 31.7515 45.8252 31.9533 45.8252 32.1638V38.6852Z"
    fill="#1F8078"
  />
<path
    d="M44.3132 10.0361C43.956 9.70988 43.6343 9.32461 43.2306 9.0735C42.4905 8.61314 42.3413 7.97553 42.3743 7.15944C42.4293 5.81037 42.4012 4.4576 42.3865 3.10606C42.3498 -0.235851 42.855 0.263897 39.4738 0.174041C38.4829 0.146961 38.2383 0.582702 38.2591 1.43941C38.2823 2.3946 38.264 3.34978 38.264 4.30497C38.16 4.35297 38.0548 4.39975 37.9508 4.44775C36.347 3.0556 34.7445 1.66344 33.1163 0.249126C29.0842 3.79906 25.0815 7.32315 20.948 10.9642C21.4006 11.4492 21.7602 11.8369 22.115 12.2185C22.8025 11.7027 23.2906 11.3359 24.087 10.7377C23.408 13.0924 25.0693 13.8445 26.2021 14.892C28.4089 16.9341 30.7161 18.8703 32.8618 20.9751C33.9603 22.0534 35.0907 22.5064 36.6125 22.4116C38.4964 22.2935 40.3937 22.3833 42.4 22.3833V10.7943C43.0936 11.3236 43.6013 11.7126 44.0918 12.088C45.4081 11.038 45.4081 11.038 44.3132 10.0361ZM36.1305 12.6604C36.1305 13.7485 35.2546 14.6298 34.1732 14.6298H32.5486C31.4672 14.6298 30.5913 13.7485 30.5913 12.6604V11.0257C30.5913 9.9376 31.4672 9.05627 32.5486 9.05627H34.1732C34.7274 9.05627 35.2277 9.28768 35.5825 9.65942H35.81C35.81 9.75543 35.81 9.85144 35.8112 9.94622V9.94745C36.0131 10.2576 36.1305 10.6281 36.1305 11.0257V12.6604Z"
    fill="#1F8078"
  />
<path
    d="M45.7331 31.5584C45.5606 31.0045 45.1594 30.5527 44.6407 30.3164C44.7471 30.3226 44.8523 30.3299 44.9575 30.3373C44.9661 30.3373 44.9746 30.3386 44.9844 30.3398C44.993 30.3423 45.0028 30.3435 45.0113 30.3459C45.0334 30.3509 45.0566 30.357 45.0799 30.3656C45.0958 30.3706 45.1117 30.378 45.1276 30.3853C45.1471 30.394 45.1679 30.4038 45.1875 30.4136C45.2242 30.4346 45.2609 30.4567 45.2976 30.4826C45.3208 30.4986 45.3453 30.5158 45.3673 30.5343C45.4383 30.5897 45.5043 30.6524 45.5582 30.7165C45.5728 30.7337 45.5875 30.7521 45.601 30.7706C45.6144 30.7878 45.6267 30.8063 45.6377 30.8248C45.6573 30.8555 45.6732 30.8875 45.6842 30.9171C45.6903 30.9319 45.6952 30.9466 45.6989 30.9614C45.7013 30.9762 45.7037 30.9897 45.705 31.0033C45.7086 31.05 45.7111 31.0968 45.7135 31.1423C45.7172 31.1879 45.7196 31.2334 45.7209 31.2802C45.7258 31.3725 45.7294 31.4648 45.7331 31.5584Z"
    fill="white"
  />
<path
    d="M28.9028 30.5177V34.7397C27.9486 34.7397 27.0152 34.7582 26.0892 34.7422V32.1646C26.0892 31.4359 25.7075 30.7959 25.1338 30.4377C25.1888 30.3934 25.2427 30.3478 25.2891 30.3023C25.3026 30.2887 25.3332 30.2912 25.3638 30.2949C25.376 30.2961 25.3882 30.2974 25.3992 30.2986C26.5675 30.3712 27.7358 30.4451 28.9028 30.5177Z"
    fill="white"
  />
<path
    d="M37.4408 33.4017C37.4371 33.8042 37.431 34.2154 37.431 34.6376H35.9581V32.1647C35.9581 31.3252 35.4517 30.6051 34.7299 30.2962C35.3563 30.2875 35.9826 30.2752 36.6016 30.338C36.8989 30.3676 37.3723 30.8008 37.3931 31.079C37.398 31.1455 37.4029 31.212 37.4077 31.2772C37.4163 31.4089 37.4224 31.5406 37.4285 31.6723V31.676C37.4518 32.241 37.4481 32.8134 37.4408 33.4017Z"
    fill="white"
  />
<path
    d="M50.4695 57.1807H5.17149C4.76657 57.1807 4.4375 57.5118 4.4375 57.9192V61.6624H51.2023V57.9192C51.2035 57.5118 50.8744 57.1807 50.4695 57.1807Z"
    fill="#1F8078"
  />
<path
    d="M4.10486 42.501V54.1712H22.3273V49.074C22.3273 47.5957 22.9231 46.2565 23.8858 45.2877C24.0742 45.0982 24.2761 44.9234 24.4901 44.7646C25.3734 44.1073 26.4658 43.7196 27.6487 43.7196C28.8317 43.7196 29.9241 44.1073 30.8073 44.7646C32.1187 45.7395 32.9701 47.3077 32.9701 49.074V54.1712H51.1926V42.501H4.10486ZM15.1844 49.1368C15.1844 49.3202 15.0364 49.4679 14.8553 49.4679H9.8006C9.61955 49.4679 9.47153 49.3202 9.47153 49.1368V44.0519C9.47153 43.8685 9.61955 43.7196 9.8006 43.7196H14.8553C15.0364 43.7196 15.1844 43.8685 15.1844 44.0519V49.1368ZM45.8259 49.1368C45.8259 49.3202 45.6779 49.4679 45.4969 49.4679H40.4421C40.2611 49.4679 40.1131 49.3202 40.1131 49.1368V44.0519C40.1131 43.8685 40.2611 43.7196 40.4421 43.7196H45.4969C45.6779 43.7196 45.8259 43.8685 45.8259 44.0519V49.1368Z"
    fill="#1F8078"
  />
<path
    d="M9.29849 26.8232V39.365H20.3768V26.8232H9.29849ZM15.1838 38.6855C15.1838 38.8689 15.0358 39.0166 14.8548 39.0166H9.80005C9.619 39.0166 9.47098 38.8689 9.47098 38.6855V32.1641C9.47098 31.0428 10.375 30.1332 11.4894 30.1332H13.1654C14.2798 30.1332 15.1838 31.0428 15.1838 32.1641V38.6855Z"
    fill="#1F8078"
  />
<path
    d="M4.10486 26.3018V44.7654H9.47153V44.0527C9.47153 43.8693 9.61955 43.7203 9.8006 43.7203H14.8553C15.0364 43.7203 15.1844 43.8693 15.1844 44.0527V44.7654H24.4901C25.3734 44.1081 26.4658 43.7203 27.6487 43.7203C28.8317 43.7203 29.9241 44.1081 30.8073 44.7654H40.1131V44.0527C40.1131 43.8693 40.2611 43.7203 40.4421 43.7203H45.4969C45.6779 43.7203 45.8259 43.8693 45.8259 44.0527V44.7654H51.1926V26.3018H4.10486ZM9.47153 32.1646C9.47153 31.0432 10.3756 30.1336 11.49 30.1336H13.1659C14.2804 30.1336 15.1844 31.0432 15.1844 32.1646V38.6859C15.1844 38.8693 15.0364 39.017 14.8553 39.017H9.8006C9.61955 39.017 9.47153 38.8693 9.47153 38.6859V32.1646ZM40.1131 32.1646C40.1131 31.0432 41.0171 30.1336 42.1315 30.1336H43.8075C44.1035 30.1336 44.3849 30.1976 44.6381 30.3145C44.6148 30.3133 44.5916 30.3121 44.5684 30.3108C44.5928 30.3121 44.6173 30.3133 44.6418 30.3157C45.1604 30.5521 45.5617 31.0038 45.7342 31.5577C45.7342 31.5577 45.7342 31.559 45.7354 31.5614C45.7941 31.7522 45.8259 31.9541 45.8259 32.1646V38.6859C45.8259 38.8693 45.6779 39.017 45.4969 39.017H40.4421C40.2611 39.017 40.1131 38.8693 40.1131 38.6859V32.1646ZM30.2458 32.1646C30.2458 31.0432 31.1486 30.1336 32.2643 30.1336H33.9402C34.2204 30.1336 34.487 30.1914 34.7293 30.2961H34.7305C35.4522 30.605 35.9587 31.3251 35.9587 32.1646V38.6859C35.9587 38.8693 35.8107 39.017 35.6284 39.017H30.5749C30.3926 39.017 30.2458 38.8693 30.2458 38.6859V32.1646ZM22.3958 30.1336H24.0718C24.462 30.1336 24.8265 30.2456 25.1348 30.4376C25.7086 30.7958 26.0902 31.4359 26.0902 32.1646V38.6859C26.0902 38.8693 25.9434 39.017 25.7612 39.017H20.7077C20.5254 39.017 20.3774 38.8693 20.3774 38.6859V32.1646C20.3774 31.0432 21.2814 30.1336 22.3958 30.1336Z"
    fill="#1F8078"
  />
<path
    d="M44.6413 30.3155C44.6168 30.313 44.5923 30.3118 44.5679 30.3105C44.5911 30.3118 44.6144 30.313 44.6376 30.3143H44.6388C44.64 30.3143 44.64 30.3143 44.6413 30.3155Z"
    fill="white"
  />
<path
    d="M4.27786 26.998L4.11639 27.1125L1.91932 28.6733L1.69056 28.4431L0.342468 27.0879L4.08213 27.003L4.11639 27.0017L4.27786 26.998Z"
    fill="#1F8078"
  />
<path
    d="M29.2063 8.70703V15.5004H37.5151V8.70703H29.2063ZM36.1303 12.6595C36.1303 13.7476 35.2544 14.6289 34.173 14.6289H32.5484C31.467 14.6289 30.5911 13.7476 30.5911 12.6595V11.0248C30.5911 9.93671 31.467 9.05538 32.5484 9.05538H34.173C34.7271 9.05538 35.2275 9.28679 35.5822 9.65852C35.6666 9.74592 35.7437 9.84193 35.811 9.94533V9.94656C36.0128 10.2567 36.1303 10.6272 36.1303 11.0248V12.6595Z"
    fill="#1F8078"
  />
</svg>
