<svg
  width="59"
  height="61"
  viewBox="0 0 59 61"
  fill="none"
  xmlns="http://www.w3.org/2000/svg"
>
<path
    d="M3.34028 49.3445C5.0089 49.3445 6.36158 45.2856 6.36158 40.2787C6.36158 35.2718 5.0089 31.2129 3.34028 31.2129C1.67165 31.2129 0.31897 35.2718 0.31897 40.2787C0.31897 45.2856 1.67165 49.3445 3.34028 49.3445Z"
    fill="#1F8078"
  />
<path
    d="M55.7453 33.6263C54.8673 32.3272 53.975 31.0386 53.0892 29.7448L51.0042 26.2959L50.9964 26.2829C50.8825 26.0783 50.7607 25.8763 50.6338 25.682L50.6273 25.6729C50.3489 25.2494 50.0446 24.857 49.7415 24.5345C49.4398 24.2133 49.1393 23.9595 48.8687 23.8131C45.2789 21.8601 41.6916 19.9006 38.0889 17.9722C37.8635 17.8517 37.4556 17.8763 37.2225 18.0007C36.676 18.2921 36.1308 18.5848 35.5843 18.8775C33.6456 19.9174 31.7108 20.9626 29.7812 22.0194C29.3345 22.2642 28.8877 22.509 28.4422 22.7563C28.1171 22.9351 27.7921 23.1151 27.467 23.2951C26.7081 23.7173 25.8249 24.1551 25.3639 24.8337C24.46 26.1651 23.569 27.5042 22.6871 28.8499C21.0709 31.3145 19.4819 33.7985 17.889 36.2786C17.7906 36.4315 17.8696 36.8498 18.0146 36.9806C18.3746 37.3057 18.8201 37.5362 19.2708 37.8315C19.7901 37.1023 20.2692 36.4289 20.7484 35.7567C20.8157 35.7839 20.8844 35.8124 20.9517 35.8396V53.4182H30.228V41.0265C30.5557 41.0032 30.8263 40.9683 31.097 40.967C35.4651 40.9644 39.8333 40.9825 44.2014 40.9475C44.9771 40.9424 45.2025 41.1742 45.1947 41.9409C45.1584 45.4468 45.1766 48.9527 45.1804 52.4585C45.1804 52.5427 45.183 52.6256 45.1856 52.7111C45.1947 52.952 45.2154 53.2019 45.2297 53.4869C48.0425 53.4869 50.7646 53.4558 53.4868 53.5063C54.2068 53.5192 54.4153 53.3004 54.4451 52.7111C54.449 52.6489 54.449 52.5829 54.449 52.5116C54.414 47.2807 54.4179 42.0497 54.4153 36.8174C54.4153 36.4781 54.4606 36.1375 54.4969 35.6194C54.7896 35.9989 54.9618 36.2048 55.1146 36.425C56.2167 38.0063 56.2154 38.0076 57.7319 36.6646C57.0714 35.6531 56.4226 34.63 55.7453 33.6263ZM29.1026 36.9107C28.7141 36.9107 28.3994 36.596 28.3994 36.2074V32.563C28.3994 32.1744 28.7141 31.8597 29.1026 31.8597H32.7469C33.1354 31.8597 33.4501 32.1744 33.4501 32.563V36.2074C33.4501 36.596 33.1354 36.9107 32.7469 36.9107H29.1026ZM40.3137 36.2074C40.3137 36.596 39.999 36.9107 39.6105 36.9107H35.9663C35.5778 36.9107 35.2631 36.596 35.2631 36.2074V32.563C35.2631 32.1744 35.5778 31.8597 35.9663 31.8597H39.6105C39.999 31.8597 40.3137 32.1744 40.3137 32.563V36.2074ZM42.83 36.9107C42.4415 36.9107 42.1268 36.596 42.1268 36.2074V32.563C42.1268 32.1744 42.4415 31.8597 42.83 31.8597H46.4742C46.8627 31.8597 47.1774 32.1744 47.1774 32.563V36.2074C47.1774 36.596 46.8627 36.9107 46.4742 36.9107H42.83Z"
    fill="#1F8078"
  />
<path
    d="M55.7453 33.6263C54.8673 32.3272 53.975 31.0386 53.0892 29.7448L51.0042 26.2959L50.9964 26.2829C50.8825 26.0783 50.7607 25.8763 50.6338 25.682L50.6273 25.6729C50.3489 25.2494 50.0446 24.857 49.7415 24.5345C49.4398 24.2133 49.1393 23.9595 48.8687 23.8131C45.2789 21.8601 41.6916 19.9006 38.0889 17.9722C37.8635 17.8517 37.4556 17.8763 37.2225 18.0007C36.676 18.2921 36.1308 18.5848 35.5843 18.8775C33.6456 19.9174 31.7108 20.9626 29.7812 22.0194C29.3345 22.2642 28.8877 22.509 28.4422 22.7563C28.1171 22.9351 27.7921 23.1151 27.467 23.2951C26.7081 23.7173 25.8249 24.1551 25.3639 24.8337C24.46 26.1651 23.569 27.5042 22.6871 28.8499C21.0709 31.3145 19.4819 33.7985 17.889 36.2786C17.7906 36.4315 17.8696 36.8498 18.0146 36.9806C18.3746 37.3057 18.8201 37.5362 19.2708 37.8315C19.7901 37.1023 20.2692 36.4289 20.7484 35.7567C20.8157 35.7839 20.8844 35.8124 20.9517 35.8396V53.4182H30.228V41.0265C30.5557 41.0032 30.8263 40.9683 31.097 40.967C35.4651 40.9644 39.8333 40.9825 44.2014 40.9475C44.9771 40.9424 45.2025 41.1742 45.1947 41.9409C45.1584 45.4468 45.1766 48.9527 45.1804 52.4585C45.1804 52.5427 45.183 52.6256 45.1856 52.7111C45.1947 52.952 45.2154 53.2019 45.2297 53.4869C48.0425 53.4869 50.7646 53.4558 53.4868 53.5063C54.2068 53.5192 54.4153 53.3004 54.4451 52.7111C54.449 52.6489 54.449 52.5829 54.449 52.5116C54.414 47.2807 54.4179 42.0497 54.4153 36.8174C54.4153 36.4781 54.4606 36.1375 54.4969 35.6194C54.7896 35.9989 54.9618 36.2048 55.1146 36.425C56.2167 38.0063 56.2154 38.0076 57.7319 36.6646C57.0714 35.6531 56.4226 34.63 55.7453 33.6263ZM29.1026 36.9107C28.7141 36.9107 28.3994 36.596 28.3994 36.2074V32.563C28.3994 32.1744 28.7141 31.8597 29.1026 31.8597H32.7469C33.1354 31.8597 33.4501 32.1744 33.4501 32.563V36.2074C33.4501 36.596 33.1354 36.9107 32.7469 36.9107H29.1026ZM40.3137 36.2074C40.3137 36.596 39.999 36.9107 39.6105 36.9107H35.9663C35.5778 36.9107 35.2631 36.596 35.2631 36.2074V32.563C35.2631 32.1744 35.5778 31.8597 35.9663 31.8597H39.6105C39.999 31.8597 40.3137 32.1744 40.3137 32.563V36.2074ZM42.83 36.9107C42.4415 36.9107 42.1268 36.596 42.1268 36.2074V32.563C42.1268 32.1744 42.4415 31.8597 42.83 31.8597H46.4742C46.8627 31.8597 47.1774 32.1744 47.1774 32.563V36.2074C47.1774 36.596 46.8627 36.9107 46.4742 36.9107H42.83Z"
    fill="#1F8078"
  />
<path
    d="M55.7453 33.6263C54.8673 32.3272 53.975 31.0386 53.0892 29.7448L51.0042 26.2959L50.9964 26.2829C50.8825 26.0783 50.7607 25.8763 50.6338 25.682L50.6273 25.6729C50.3489 25.2494 50.0446 24.857 49.7415 24.5345C49.4398 24.2133 49.1393 23.9595 48.8687 23.8131C45.2789 21.8601 41.6916 19.9006 38.0889 17.9722C37.8635 17.8517 37.4556 17.8763 37.2225 18.0007C36.676 18.2921 36.1308 18.5848 35.5843 18.8775C33.6456 19.9174 31.7108 20.9626 29.7812 22.0194C29.3345 22.2642 28.8877 22.509 28.4422 22.7563C28.1171 22.9351 27.7921 23.1151 27.467 23.2951C26.7081 23.7173 25.8249 24.1551 25.3639 24.8337C24.46 26.1651 23.569 27.5042 22.6871 28.8499C21.0709 31.3145 19.4819 33.7985 17.889 36.2786C17.7906 36.4315 17.8696 36.8498 18.0146 36.9806C18.3746 37.3057 18.8201 37.5362 19.2708 37.8315C19.7901 37.1023 20.2692 36.4289 20.7484 35.7567C20.8157 35.7839 20.8844 35.8124 20.9517 35.8396V53.4182H30.228V41.0265C30.5557 41.0032 30.8263 40.9683 31.097 40.967C35.4651 40.9644 39.8333 40.9825 44.2014 40.9475C44.9771 40.9424 45.2025 41.1742 45.1947 41.9409C45.1584 45.4468 45.1766 48.9527 45.1804 52.4585C45.1804 52.5427 45.183 52.6256 45.1856 52.7111C45.1947 52.952 45.2154 53.2019 45.2297 53.4869C48.0425 53.4869 50.7646 53.4558 53.4868 53.5063C54.2068 53.5192 54.4153 53.3004 54.4451 52.7111C54.449 52.6489 54.449 52.5829 54.449 52.5116C54.414 47.2807 54.4179 42.0497 54.4153 36.8174C54.4153 36.4781 54.4606 36.1375 54.4969 35.6194C54.7896 35.9989 54.9618 36.2048 55.1146 36.425C56.2167 38.0063 56.2154 38.0076 57.7319 36.6646C57.0714 35.6531 56.4226 34.63 55.7453 33.6263ZM29.1026 36.9107C28.7141 36.9107 28.3994 36.596 28.3994 36.2074V32.563C28.3994 32.1744 28.7141 31.8597 29.1026 31.8597H32.7469C33.1354 31.8597 33.4501 32.1744 33.4501 32.563V36.2074C33.4501 36.596 33.1354 36.9107 32.7469 36.9107H29.1026ZM40.3137 36.2074C40.3137 36.596 39.999 36.9107 39.6105 36.9107H35.9663C35.5778 36.9107 35.2631 36.596 35.2631 36.2074V32.563C35.2631 32.1744 35.5778 31.8597 35.9663 31.8597H39.6105C39.999 31.8597 40.3137 32.1744 40.3137 32.563V36.2074ZM42.83 36.9107C42.4415 36.9107 42.1268 36.596 42.1268 36.2074V32.563C42.1268 32.1744 42.4415 31.8597 42.83 31.8597H46.4742C46.8627 31.8597 47.1774 32.1744 47.1774 32.563V36.2074C47.1774 36.596 46.8627 36.9107 46.4742 36.9107H42.83Z"
    fill="#1F8078"
  />
<path
    d="M35.5682 17.418C33.772 18.379 31.8036 19.4371 29.7626 20.5535C29.76 20.244 29.7587 19.9331 29.7587 19.621C29.7587 8.78478 31.0628 0 32.6725 0C34.1722 0 35.4051 7.61917 35.5682 17.418Z"
    fill="#1F8078"
  />
<path
    d="M35.5866 19.6213C35.5866 30.4576 34.2825 39.2423 32.6728 39.2423C32.1742 39.2423 31.7041 38.3979 31.2936 36.9111H32.7466C33.1351 36.9111 33.4498 36.5964 33.4498 36.2079V32.5634C33.4498 32.1749 33.1351 31.8602 32.7466 31.8602H30.3961C30.0659 29.0925 29.8471 25.7149 29.781 22.0199C31.7106 20.9631 33.6454 19.9179 35.584 18.8779C35.5853 19.124 35.5866 19.3727 35.5866 19.6213Z"
    fill="#1F8078"
  />
<path
    d="M24.2912 24.1063C23.7395 24.9197 23.1904 25.7382 22.6439 26.5619C22.6388 26.1086 22.6362 25.6514 22.6362 25.1904C22.6362 14.3541 23.9403 5.56934 25.55 5.56934C26.9616 5.56934 28.1388 12.326 28.4055 21.2972C27.8862 21.5835 27.363 21.8723 26.8385 22.1637C26.7647 22.2038 26.6909 22.2453 26.6158 22.2867C25.8038 22.7322 24.8818 23.236 24.2912 24.1063Z"
    fill="#1F8078"
  />
<path
    d="M28.4638 25.1904C28.4638 36.0266 27.1597 44.8114 25.55 44.8114C24.1255 44.8114 22.9418 37.9369 22.6867 28.8504C23.5686 27.5047 24.4596 26.1656 25.3635 24.8342C25.8246 24.1556 26.7078 23.7178 27.4667 23.2956C27.7917 23.1156 28.1168 22.9356 28.4418 22.7568C28.4561 23.5546 28.4638 24.3667 28.4638 25.1904Z"
    fill="#1F8078"
  />
<path
    d="M57.9906 57.668H1.00932C0.580663 57.668 0.2323 58.0164 0.2323 58.445V61.0003H58.7676V58.445C58.7676 58.0164 58.4193 57.668 57.9906 57.668Z"
    fill="#1F8078"
  />
<path
    d="M47.4556 21.5688L49.4875 22.6748C50.1505 23.0361 50.7514 23.6759 51.1969 24.2458L51.2746 24.2315L51.733 24.9956C51.8664 25.199 51.9946 25.4127 52.1177 25.6315L53.2832 27.5587C53.6393 25.7921 53.8465 23.7187 53.8465 21.4988C53.8465 15.0608 52.1073 9.84277 49.9614 9.84277C47.892 9.84277 46.1994 14.6995 46.0828 20.8228C46.5426 21.0727 46.9997 21.3214 47.4556 21.5688Z"
    fill="#1F8078"
  />
<path
    d="M32.0188 52.7043C33.5042 51.2266 34.93 49.8059 36.3468 48.3968C34.9054 46.9631 33.4848 45.5501 32.0188 44.0918C32.0188 46.9618 32.0188 49.8033 32.0188 52.7043Z"
    fill="#1F8078"
  />
<path
    d="M43.3464 52.6241C43.3464 49.7968 43.3464 46.9489 43.3464 44.04C41.8402 45.5165 40.4028 46.9256 39.03 48.2699C40.5025 49.7554 41.9283 51.193 43.3464 52.6241Z"
    fill="#1F8078"
  />
<path
    d="M41.7937 42.7754C39.0094 42.7754 36.2173 42.7754 33.5237 42.7754C34.899 44.2 36.2808 45.6311 37.5486 46.9457C38.9615 45.5573 40.3718 44.1715 41.7937 42.7754Z"
    fill="#1F8078"
  />
<path
    d="M37.3195 49.8673C36.1229 50.9565 34.9548 52.0781 33.7776 53.1906C33.8307 53.2747 33.8825 53.3589 33.9356 53.4431C36.4091 53.4431 38.8813 53.4431 41.3548 53.4431C41.4092 53.3732 41.4636 53.3045 41.518 53.2346C40.3278 52.1027 39.1455 50.9617 37.9346 49.853C37.8207 49.7494 37.4386 49.7585 37.3195 49.8673Z"
    fill="#1F8078"
  />
<path
    d="M8.78577 42.7393V53.4887H20.9526V42.7393H8.78577ZM12.3432 46.2918C12.3432 45.9032 12.6592 45.5885 13.0477 45.5885H16.6906C17.0791 45.5885 17.3938 45.9032 17.3938 46.2918V49.9362C17.3938 50.3248 17.0791 50.6395 16.6906 50.6395H13.0477C12.6592 50.6395 12.3432 50.3248 12.3432 49.9362V46.2918Z"
    fill="#1F8078"
  />
<path d="M56.3071 52.7109H7.22546V54.9126H56.3071V52.7109Z" fill="#1F8078" />
<path
    d="M24.7459 40.5371H9.42701C8.21098 40.5371 7.22546 41.5227 7.22546 42.7388H24.7459V40.5371Z"
    fill="#1F8078"
  />
<path
    d="M2.43394 54.7837H4.24698L5.01235 42.3506H1.66858L2.43394 54.7837Z"
    fill="#1F8078"
  />
<path
    d="M11.8809 6.92142V9.17752C11.7346 9.16327 11.5844 9.1568 11.4342 9.1568C11.2839 9.1568 11.1337 9.16327 10.9874 9.17752V6.92142C10.9874 6.67406 11.1868 6.47461 11.4342 6.47461C11.6815 6.47461 11.8809 6.67406 11.8809 6.92142Z"
    fill="#1F8078"
  />
<path
    d="M11.8809 10.1024V12.0282C11.8809 12.2743 11.6815 12.475 11.4342 12.475C11.1868 12.475 10.9874 12.2743 10.9874 12.0282V10.1024C11.1337 10.0843 11.2839 10.0752 11.4342 10.0752C11.5844 10.0752 11.7346 10.0843 11.8809 10.1024Z"
    fill="#1F8078"
  />
<path
    d="M11.881 15.5562V17.482C11.7347 17.5002 11.5844 17.5092 11.4342 17.5092C11.284 17.5092 11.1338 17.5002 10.9874 17.482V15.5562C10.9874 15.3088 11.1869 15.1094 11.4342 15.1094C11.6816 15.1094 11.881 15.3088 11.881 15.5562Z"
    fill="#1F8078"
  />
<path
    d="M11.4342 18.4289C11.5844 18.4289 11.7346 18.4224 11.8809 18.4082V20.6643C11.8809 20.9117 11.6815 21.1111 11.4342 21.1111C11.1868 21.1111 10.9874 20.9117 10.9874 20.6643V18.4082C11.1337 18.4224 11.2839 18.4289 11.4342 18.4289Z"
    fill="#1F8078"
  />
<path
    d="M14.3597 11.4992L12.9986 12.8617C12.9106 12.9484 12.7966 12.9925 12.6826 12.9925C12.5674 12.9925 12.4534 12.9484 12.3667 12.8617C12.1918 12.6868 12.1918 12.4032 12.3667 12.2297L13.7277 10.8672C13.9621 11.0524 14.1758 11.2648 14.3597 11.4992Z"
    fill="#1F8078"
  />
<path
    d="M16.6093 9.25143L15.0139 10.847C14.8235 10.6165 14.6111 10.4041 14.3819 10.215L15.9774 8.61941C16.1522 8.44457 16.4345 8.44457 16.6093 8.61941C16.7829 8.79425 16.7829 9.07659 16.6093 9.25143Z"
    fill="#1F8078"
  />
<path
    d="M8.48638 17.3732L6.8909 18.9688C6.80414 19.0556 6.69017 19.0996 6.57492 19.0996C6.46095 19.0996 6.3457 19.0556 6.25893 18.9688C6.0841 18.794 6.0841 18.5103 6.25893 18.3368L7.85441 16.7412C8.04478 16.9704 8.25716 17.1828 8.48638 17.3732Z"
    fill="#1F8078"
  />
<path
    d="M10.5026 15.3579L9.14021 16.7203C8.90581 16.5364 8.69343 16.3227 8.50824 16.0883L9.86932 14.7259C10.0441 14.551 10.3278 14.551 10.5013 14.7259C10.6748 14.9007 10.6761 15.1817 10.5026 15.3579Z"
    fill="#1F8078"
  />
<path
    d="M15.1245 13.3457C15.1426 13.4921 15.1517 13.6423 15.1517 13.7925C15.1517 13.9428 15.1426 14.093 15.1245 14.2393H13.1988C12.9514 14.2393 12.752 14.0399 12.752 13.7925C12.752 13.5452 12.9514 13.3457 13.1988 13.3457H15.1245Z"
    fill="#1F8078"
  />
<path
    d="M18.7521 13.7925C18.7521 14.0399 18.5527 14.2393 18.3053 14.2393H16.0494C16.0636 14.093 16.0701 13.9428 16.0701 13.7925C16.0701 13.6423 16.0636 13.4921 16.0494 13.3457H18.3053C18.5527 13.3457 18.7521 13.5452 18.7521 13.7925Z"
    fill="#1F8078"
  />
<path
    d="M6.82095 13.3457C6.80671 13.4921 6.80023 13.6423 6.80023 13.7925C6.80023 13.9428 6.80671 14.093 6.82095 14.2393H4.56501C4.31766 14.2393 4.11823 14.0399 4.11823 13.7925C4.11823 13.5452 4.31766 13.3457 4.56501 13.3457H6.82095Z"
    fill="#1F8078"
  />
<path
    d="M10.118 13.7925C10.118 14.0399 9.91728 14.2393 9.67123 14.2393H7.74552C7.72739 14.093 7.71832 13.9428 7.71832 13.7925C7.71832 13.6423 7.72739 13.4921 7.74552 13.3457H9.67123C9.91728 13.3457 10.118 13.5452 10.118 13.7925Z"
    fill="#1F8078"
  />
<path
    d="M12.9986 14.7249L14.3597 16.0861C14.1758 16.3218 13.9634 16.5342 13.7277 16.7181L12.3667 15.3569C12.1918 15.1821 12.1918 14.8984 12.3667 14.7249C12.5402 14.5513 12.8225 14.5513 12.9986 14.7249Z"
    fill="#1F8078"
  />
<path
    d="M16.6093 18.9688C16.5213 19.0556 16.4073 19.0996 16.2934 19.0996C16.1781 19.0996 16.0641 19.0556 15.9774 18.9688L14.3819 17.3732C14.6124 17.1828 14.8248 16.9704 15.0139 16.7412L16.6093 18.3368C16.7829 18.5103 16.7829 18.7927 16.6093 18.9688Z"
    fill="#1F8078"
  />
<path
    d="M6.8922 8.61828L8.48768 10.2139C8.25716 10.4042 8.04478 10.6166 7.8557 10.8459L6.25893 9.25159C6.0841 9.07675 6.0841 8.79442 6.25893 8.61957C6.43505 8.44473 6.71737 8.44473 6.8922 8.61828Z"
    fill="#1F8078"
  />
<path
    d="M10.5026 12.8626C10.4158 12.9494 10.3006 12.9935 10.1866 12.9935C10.0726 12.9935 9.95738 12.9494 9.87061 12.8626L8.50824 11.5002C8.69213 11.2658 8.90581 11.0521 9.14021 10.8682L10.5026 12.2306C10.6761 12.4042 10.6761 12.6878 10.5026 12.8626Z"
    fill="#1F8078"
  />
<path
    d="M15.1512 13.7932C15.1512 13.9434 15.1422 14.0936 15.124 14.24C15.0412 14.9316 14.7679 15.5636 14.3587 16.0855C14.1748 16.3212 13.9624 16.5336 13.7267 16.7175C13.2048 17.1268 12.5728 17.4001 11.8813 17.4829C11.735 17.5011 11.5847 17.5101 11.4345 17.5101C11.2843 17.5101 11.1341 17.5011 10.9877 17.4829C10.2962 17.4001 9.66291 17.1281 9.14101 16.7188C8.90661 16.5349 8.69423 16.3212 8.50904 16.0868C8.09981 15.5649 7.82785 14.9316 7.74497 14.24C7.72684 14.0936 7.71777 13.9434 7.71777 13.7932C7.71777 13.6429 7.72684 13.4927 7.74497 13.3463C7.82785 12.6547 8.09981 12.0214 8.50904 11.4995C8.69293 11.2651 8.90661 11.0514 9.14101 10.8675C9.66291 10.4582 10.2962 10.1863 10.9877 10.1034C11.1341 10.0852 11.2843 10.0762 11.4345 10.0762C11.5847 10.0762 11.735 10.0852 11.8813 10.1034C12.5728 10.1863 13.2061 10.4582 13.728 10.8675C13.9624 11.0527 14.1761 11.2651 14.36 11.4995C14.7692 12.0214 15.0412 12.6547 15.124 13.3463C15.1422 13.4927 15.1512 13.6429 15.1512 13.7932Z"
    fill="#1F8078"
  />
</svg>
