<svg width="18" height="17" viewBox="0 0 18 17" fill="none" xmlns="http://www.w3.org/2000/svg">
<path d="M9.00001 14.2752L4.85001 16.7752C4.66668 16.8919 4.47501 16.9419 4.27501 16.9252C4.07501 16.9085 3.90001 16.8419 3.75001 16.7252C3.60001 16.6085 3.48334 16.4629 3.40001 16.2882C3.31668 16.1129 3.30001 15.9169 3.35001 15.7002L4.45001 10.9752L0.775009 7.8002C0.608343 7.6502 0.504343 7.4792 0.463009 7.2872C0.421009 7.09586 0.433343 6.90853 0.500009 6.7252C0.566676 6.54186 0.666676 6.39186 0.800009 6.2752C0.933343 6.15853 1.11668 6.08353 1.35001 6.0502L6.20001 5.6252L8.07501 1.1752C8.15834 0.975196 8.28768 0.825195 8.46301 0.725195C8.63768 0.625195 8.81668 0.575195 9.00001 0.575195C9.18334 0.575195 9.36268 0.625195 9.53801 0.725195C9.71268 0.825195 9.84168 0.975196 9.92501 1.1752L11.8 5.6252L16.65 6.0502C16.8833 6.08353 17.0667 6.15853 17.2 6.2752C17.3333 6.39186 17.4333 6.54186 17.5 6.7252C17.5667 6.90853 17.5793 7.09586 17.538 7.2872C17.496 7.4792 17.3917 7.6502 17.225 7.8002L13.55 10.9752L14.65 15.7002C14.7 15.9169 14.6833 16.1129 14.6 16.2882C14.5167 16.4629 14.4 16.6085 14.25 16.7252C14.1 16.8419 13.925 16.9085 13.725 16.9252C13.525 16.9419 13.3333 16.8919 13.15 16.7752L9.00001 14.2752Z" fill="#40918B"/>
</svg>
