<svg width="24" height="24" viewBox="0 0 24 24" fill="none" xmlns="http://www.w3.org/2000/svg">
<path d="M4.47661 11.8209C5.83767 11.8209 6.94102 10.7188 6.94102 9.3594C6.94102 7.99998 5.83767 6.89795 4.47661 6.89795C3.11556 6.89795 2.01221 7.99998 2.01221 9.3594C2.01221 10.7188 3.11556 11.8209 4.47661 11.8209Z" fill="#40918B"/>
<path d="M8.9124 7.88238C10.2735 7.88238 11.3768 6.78035 11.3768 5.42093C11.3768 4.0615 10.2735 2.95947 8.9124 2.95947C7.55135 2.95947 6.448 4.0615 6.448 5.42093C6.448 6.78035 7.55135 7.88238 8.9124 7.88238Z" fill="#40918B"/>
<path d="M14.827 7.88238C16.188 7.88238 17.2914 6.78035 17.2914 5.42093C17.2914 4.0615 16.188 2.95947 14.827 2.95947C13.4659 2.95947 12.3625 4.0615 12.3625 5.42093C12.3625 6.78035 13.4659 7.88238 14.827 7.88238Z" fill="#40918B"/>
<path d="M19.263 11.8209C20.624 11.8209 21.7274 10.7188 21.7274 9.3594C21.7274 7.99998 20.624 6.89795 19.263 6.89795C17.9019 6.89795 16.7986 7.99998 16.7986 9.3594C16.7986 10.7188 17.9019 11.8209 19.263 11.8209Z" fill="#40918B"/>
<path d="M17.1338 14.6365C16.2761 13.6323 15.5565 12.7757 14.6891 11.7714C14.2356 11.2397 13.654 10.708 12.964 10.4717C12.8555 10.4324 12.7471 10.4028 12.6387 10.3831C12.3922 10.3437 12.1261 10.3438 11.8698 10.3438C11.6135 10.3438 11.3473 10.3438 11.091 10.393C10.9826 10.4127 10.8742 10.4422 10.7657 10.4816C10.0757 10.7179 9.50396 11.2496 9.04065 11.7812C8.18304 12.7855 7.46343 13.6421 6.59596 14.6464C5.30461 15.9362 3.71754 17.3638 4.01327 19.3625C4.29914 20.3668 5.01874 21.3612 6.31009 21.6467C7.0297 21.7944 9.32652 21.2135 11.7712 21.2135H11.9486C14.3933 21.2135 16.6902 21.7846 17.4098 21.6467C18.7011 21.3612 19.4207 20.3569 19.7066 19.3625C20.0122 17.354 18.4251 15.9263 17.1338 14.6365Z" fill="#40918B"/>
</svg>
