<svg width="25" height="25" viewBox="0 0 25 25" fill="none" xmlns="http://www.w3.org/2000/svg">
<g clip-path="url(#clip0_2009_4520)">
<path d="M7.05536 1.57775C6.53322 0.756239 5.33644 0.525477 4.56015 1.14392C1.99563 3.18846 0.364502 6.23913 0.364502 9.65439H12.1936L7.05536 1.57775ZM23.2835 5.22378H21.0655C19.4344 5.22378 18.1082 6.54835 18.1082 8.17752V11.1313H0.364502C0.364502 13.4666 1.42728 15.5803 3.15082 17.1634C1.55204 17.5741 0.364502 19.0095 0.364502 20.7309C0.364502 22.7709 2.01873 24.4231 4.06111 24.4231C6.10349 24.4231 7.75772 22.7709 7.75772 20.7309C7.75772 20.3202 7.67454 19.9371 7.5544 19.5679C8.55249 19.8402 9.61526 19.9925 10.715 19.9925C11.8147 19.9925 12.8821 19.8402 13.8756 19.5679C13.7508 19.9371 13.6723 20.3202 13.6723 20.7309C13.6723 22.7709 15.3265 24.4231 17.3689 24.4231C19.4113 24.4231 21.0655 22.7709 21.0655 20.7309C21.0655 19.0095 19.878 17.5741 18.2792 17.1634C20.0027 15.5803 21.0655 13.4666 21.0655 11.1313V8.17752H23.2835C23.6901 8.17752 24.0228 7.84522 24.0228 7.43909V5.96221C24.0228 5.55607 23.6901 5.22378 23.2835 5.22378ZM4.06111 22.2078C3.24786 22.2078 2.58247 21.5432 2.58247 20.7309C2.58247 19.9187 3.24786 19.2541 4.06111 19.2541C4.87436 19.2541 5.53975 19.9187 5.53975 20.7309C5.53975 21.5432 4.87436 22.2078 4.06111 22.2078ZM18.8475 20.7309C18.8475 21.5432 18.1821 22.2078 17.3689 22.2078C16.5556 22.2078 15.8903 21.5432 15.8903 20.7309C15.8903 19.9187 16.5556 19.2541 17.3689 19.2541C18.1821 19.2541 18.8475 19.9187 18.8475 20.7309Z" fill="#EB6B69"/>
</g>
<defs>
<clipPath id="clip0_2009_4520">
<rect width="23.6583" height="23.63" fill="white" transform="translate(0.364502 0.793457)"/>
</clipPath>
</defs>
</svg>
