<svg
  width="23"
  height="23"
  viewBox="0 0 23 23"
  fill="none"
  xmlns="http://www.w3.org/2000/svg"
>
<g clip-path="url(#clip0_2009_4915)">
<path
      d="M17.1161 7.28558C15.8681 6.3492 14.7903 5.54089 14.7903 3.27943C14.7903 2.92229 14.5013 2.6333 14.1442 2.6333C13.787 2.6333 13.498 2.92229 13.498 3.27943C13.498 6.18702 15.0086 7.31965 16.3413 8.31913C17.5894 9.2555 18.6671 10.0638 18.6671 12.3253C18.6671 12.6824 18.9561 12.9714 19.3132 12.9714C19.6704 12.9714 19.9594 12.6824 19.9594 12.3253C19.9594 9.41768 18.4488 8.28506 17.1161 7.28558Z"
      fill="#EB6B69"
    />
<path
      d="M19.9594 3.27943C19.9594 2.92229 19.6704 2.6333 19.3132 2.6333C18.9561 2.6333 18.6671 2.92229 18.6671 3.27943C18.6671 6.05956 19.4111 7.17578 20.0679 8.16074C20.6768 9.07381 21.2516 9.93635 21.2516 12.3253C21.2516 12.6824 21.5406 12.9714 21.8978 12.9714C22.2549 12.9714 22.5439 12.6824 22.5439 12.3253C22.5439 9.54514 21.7999 8.42893 21.1431 7.44397C20.5342 6.5309 19.9594 5.66835 19.9594 3.27943Z"
      fill="#EB6B69"
    />
<path
      d="M8.28591 14.2637H1.13539C0.778251 14.2637 0.489258 14.5527 0.489258 14.9098V18.7866C0.489258 19.1437 0.778251 19.4327 1.13539 19.4327H8.28591V14.2637Z"
      fill="#EB6B69"
    />
<path d="M9.57825 14.2637H18.6672V19.4327H9.57825V14.2637Z" fill="#EB6B69" />
<path
      d="M21.8977 14.2637H19.9594V19.4327H21.8977C22.2549 19.4327 22.5439 19.1437 22.5439 18.7866V14.9098C22.5439 14.5527 22.2549 14.2637 21.8977 14.2637Z"
      fill="#EB6B69"
    />
</g>
<defs>
<clipPath id="clip0_2009_4915">
<rect
        width="22.0546"
        height="22.0546"
        fill="white"
        transform="translate(0.489258 0.00585938)"
      />
</clipPath>
</defs>
</svg>
