<svg width="24" height="24" viewBox="0 0 24 24" fill="none" xmlns="http://www.w3.org/2000/svg">
<g clip-path="url(#clip0_1380_14977)">
<path d="M1.48502 17.4862C2.06252 17.4862 2.31752 17.6325 2.66627 17.8312C3.06752 18.06 3.56627 18.3488 4.48877 18.3488C5.41127 18.3488 5.91002 18.0637 6.31127 17.8312C6.66002 17.6325 6.91127 17.4862 7.49252 17.4862C8.07002 17.4862 8.32502 17.6325 8.67377 17.8312C9.07502 18.06 9.57377 18.3488 10.4963 18.3488C11.4188 18.3488 11.9175 18.0637 12.3188 17.8312C12.6675 17.6325 12.9188 17.4862 13.5 17.4862C14.0775 17.4862 14.3325 17.6325 14.6813 17.8312C15.045 18.0413 15.495 18.2925 16.2713 18.3375C16.2825 18.3375 16.2938 18.3412 16.305 18.3412H16.32C16.3838 18.345 16.44 18.3488 16.5075 18.3488C17.43 18.3488 17.9325 18.0637 18.3338 17.8312C18.6825 17.6325 18.9375 17.4862 19.515 17.4862C20.0963 17.4862 20.3475 17.6325 20.6963 17.8312C21.0975 18.06 21.5963 18.3488 22.5225 18.3488C22.6072 18.3488 22.6911 18.3321 22.7694 18.2997C22.8476 18.2672 22.9187 18.2197 22.9786 18.1598C23.0385 18.0999 23.086 18.0288 23.1184 17.9506C23.1508 17.8723 23.1675 17.7885 23.1675 17.7038C23.1675 17.619 23.1508 17.5352 23.1184 17.4569C23.086 17.3787 23.0385 17.3076 22.9786 17.2477C22.9187 17.1878 22.8476 17.1403 22.7694 17.1078C22.6911 17.0754 22.6072 17.0588 22.5225 17.0588C21.9413 17.0588 21.69 16.9125 21.3413 16.7137C20.94 16.485 20.4413 16.1962 19.515 16.1962C18.5925 16.1962 18.09 16.4813 17.6888 16.7137C17.445 16.8525 17.2463 16.965 16.95 17.0212V2.50875C16.95 1.8375 17.4975 1.29375 18.165 1.29375C18.8363 1.29375 19.38 1.84125 19.38 2.50875V2.865C19.38 3.03606 19.448 3.20012 19.5689 3.32108C19.6899 3.44204 19.854 3.51 20.025 3.51C20.1961 3.51 20.3601 3.44204 20.4811 3.32108C20.6021 3.20012 20.67 3.03606 20.67 2.865V2.50875C20.67 1.125 19.545 0 18.1613 0C16.7775 0 15.6525 1.125 15.6525 2.50875V6.48H8.55002V3.10875C8.55002 2.4375 9.09752 1.89375 9.76502 1.89375C10.4363 1.89375 10.98 2.44125 10.98 3.10875V3.465C10.98 3.63606 11.048 3.80012 11.1689 3.92108C11.2899 4.04204 11.454 4.11 11.625 4.11C11.7961 4.11 11.9601 4.04204 12.0811 3.92108C12.2021 3.80012 12.27 3.63606 12.27 3.465V3.10875C12.27 1.725 11.145 0.6 9.76127 0.6C8.37752 0.6 7.25252 1.725 7.25252 3.10875V16.2075C6.48002 16.2525 6.03002 16.5037 5.66252 16.7137C5.31377 16.9125 5.06252 17.0588 4.48127 17.0588C3.90002 17.0588 3.64877 16.9125 3.30002 16.7137C2.89877 16.485 2.40002 16.1962 1.47752 16.1962C1.12127 16.1962 0.83252 16.485 0.83252 16.8412C0.83627 17.1975 1.12502 17.4862 1.48502 17.4862ZM8.55002 7.77H15.6563V10.4887H8.55002V7.77ZM8.55002 11.7825H15.6563V14.34H8.55002V11.7825ZM8.55002 15.63H15.6563V16.89C15.5475 16.8375 15.4388 16.7775 15.3225 16.7137C14.9213 16.485 14.4225 16.1962 13.5 16.1962C12.5775 16.1962 12.0788 16.4813 11.6775 16.7137C11.3288 16.9125 11.0775 17.0588 10.4963 17.0588C9.91877 17.0588 9.66377 16.9125 9.31502 16.7137C9.10502 16.5938 8.86127 16.4587 8.55002 16.3538V15.63ZM22.515 19.8825C21.9338 19.8825 21.6825 19.7362 21.3338 19.5375C20.9325 19.3088 20.4338 19.02 19.5075 19.02C18.585 19.02 18.0825 19.305 17.6813 19.5375C17.3325 19.7362 17.0775 19.8825 16.5 19.8825C15.9225 19.8825 15.6675 19.7362 15.3188 19.5375C14.9175 19.3088 14.4188 19.02 13.4963 19.02C12.5738 19.02 12.075 19.305 11.6738 19.5375C11.325 19.7362 11.0738 19.8825 10.4925 19.8825C9.91502 19.8825 9.66002 19.7362 9.31127 19.5375C8.91002 19.3088 8.41127 19.02 7.48877 19.02C6.56627 19.02 6.06752 19.305 5.66627 19.5375C5.31752 19.7362 5.06627 19.8825 4.48502 19.8825C3.90377 19.8825 3.65252 19.7362 3.30377 19.5375C2.90252 19.3088 2.40377 19.02 1.48127 19.02C1.3102 19.02 1.14615 19.088 1.02519 19.2089C0.904225 19.3299 0.83627 19.4939 0.83627 19.665C0.83627 19.8361 0.904225 20.0001 1.02519 20.1211C1.14615 20.242 1.3102 20.31 1.48127 20.31C2.05877 20.31 2.31377 20.4563 2.66252 20.655C3.06377 20.8838 3.56252 21.1725 4.48502 21.1725C5.40752 21.1725 5.90627 20.8875 6.30752 20.655C6.65627 20.4563 6.90752 20.31 7.48877 20.31C8.06627 20.31 8.32127 20.4563 8.67002 20.655C9.07127 20.8838 9.57002 21.1725 10.4925 21.1725C11.415 21.1725 11.9138 20.8875 12.315 20.655C12.6638 20.4563 12.915 20.31 13.4963 20.31C14.0738 20.31 14.3288 20.4563 14.6775 20.655C15.0788 20.8838 15.5775 21.1725 16.5 21.1725C17.4225 21.1725 17.925 20.8875 18.3263 20.655C18.675 20.4563 18.93 20.31 19.5075 20.31C20.0888 20.31 20.34 20.4563 20.6888 20.655C21.09 20.8838 21.5888 21.1725 22.515 21.1725C22.8713 21.1725 23.16 20.8838 23.16 20.5275C23.1638 20.1713 22.875 19.8825 22.515 19.8825ZM22.515 22.71C21.9338 22.71 21.6825 22.5637 21.3338 22.365C20.9325 22.1362 20.4338 21.8475 19.5075 21.8475C18.585 21.8475 18.0825 22.1325 17.6813 22.365C17.3325 22.5637 17.0775 22.71 16.5 22.71C15.9225 22.71 15.6675 22.5637 15.3188 22.365C14.9175 22.1362 14.4188 21.8475 13.4963 21.8475C12.5738 21.8475 12.075 22.1325 11.6738 22.365C11.325 22.5637 11.0738 22.71 10.4925 22.71C9.91502 22.71 9.66002 22.5637 9.31127 22.365C8.91002 22.1362 8.41127 21.8475 7.48877 21.8475C6.56627 21.8475 6.06752 22.1325 5.66627 22.365C5.31752 22.5637 5.06627 22.71 4.48502 22.71C3.90377 22.71 3.65252 22.5637 3.30377 22.365C2.90252 22.1362 2.40377 21.8475 1.48127 21.8475C1.3102 21.8475 1.14615 21.9155 1.02519 22.0364C0.904225 22.1574 0.83627 22.3214 0.83627 22.4925C0.83627 22.6636 0.904225 22.8276 1.02519 22.9486C1.14615 23.0695 1.3102 23.1375 1.48127 23.1375C2.05877 23.1375 2.31377 23.2838 2.66252 23.4825C3.06377 23.715 3.56252 24 4.48877 24C5.41502 24 5.91002 23.715 6.31127 23.4825C6.66002 23.2838 6.91127 23.1375 7.49252 23.1375C8.07002 23.1375 8.32502 23.2838 8.67377 23.4825C9.07502 23.7113 9.57377 24 10.4963 24C11.4188 24 11.9175 23.715 12.3188 23.4825C12.6675 23.2838 12.9188 23.1375 13.5 23.1375C14.0775 23.1375 14.3325 23.2838 14.6813 23.4825C15.0825 23.7113 15.5813 24 16.5038 24C17.4263 24 17.9288 23.715 18.33 23.4825C18.6788 23.2838 18.9338 23.1375 19.5113 23.1375C20.0925 23.1375 20.3438 23.2838 20.6925 23.4825C21.0938 23.7113 21.5925 24 22.5188 24C22.6035 23.9998 22.6873 23.9828 22.7655 23.9502C22.8436 23.9175 22.9146 23.8698 22.9743 23.8098C23.034 23.7497 23.0813 23.6784 23.1135 23.6001C23.1457 23.5217 23.1621 23.4378 23.1619 23.3531C23.1616 23.2684 23.1447 23.1846 23.1121 23.1064C23.0794 23.0283 23.0317 22.9573 22.9717 22.8976C22.9116 22.8379 22.8403 22.7906 22.762 22.7584C22.6836 22.7262 22.5997 22.7098 22.515 22.71Z" fill="#1D1D1D"/>
</g>
<defs>
<clipPath id="clip0_1380_14977">
<rect width="24" height="24" fill="white"/>
</clipPath>
</defs>
</svg>
