<svg width="12" height="16" viewBox="0 0 12 16" fill="none" xmlns="http://www.w3.org/2000/svg">
<path d="M6 6.875C5.33249 6.875 4.67997 6.67706 4.12495 6.30621C3.56993 5.93536 3.13735 5.40826 2.88191 4.79156C2.62646 4.17486 2.55962 3.49626 2.68985 2.84157C2.82008 2.18689 3.14151 1.58552 3.61351 1.11352C4.08552 0.641514 4.68688 0.320076 5.34157 0.189851C5.99626 0.0596261 6.67486 0.126462 7.29156 0.381908C7.90826 0.637354 8.43536 1.06994 8.80621 1.62495C9.17706 2.17997 9.375 2.83249 9.375 3.5C9.375 4.39511 9.01942 5.25355 8.38649 5.88649C7.75355 6.51942 6.89511 6.875 6 6.875V6.875ZM6 1.25C5.55499 1.25 5.11998 1.38196 4.74997 1.62919C4.37996 1.87643 4.09157 2.22783 3.92127 2.63896C3.75097 3.0501 3.70642 3.5025 3.79323 3.93895C3.88005 4.37541 4.09434 4.77632 4.40901 5.09099C4.72368 5.40566 5.12459 5.61995 5.56105 5.70677C5.9975 5.79359 6.4499 5.74903 6.86104 5.57873C7.27217 5.40843 7.62357 5.12004 7.87081 4.75003C8.11804 4.38002 8.25 3.94501 8.25 3.5C8.25 2.90326 8.01295 2.33097 7.59099 1.90901C7.16903 1.48705 6.59674 1.25 6 1.25ZM11.0625 15.875H0.9375C0.788316 15.875 0.645242 15.8157 0.539753 15.7102C0.434263 15.6048 0.375 15.4617 0.375 15.3125V13.0625C0.375 11.5707 0.967632 10.1399 2.02252 9.08503C3.07742 8.03013 4.50816 7.4375 6 7.4375C7.49184 7.4375 8.92258 8.03013 9.97748 9.08503C11.0324 10.1399 11.625 11.5707 11.625 13.0625V15.3125C11.625 15.4617 11.5657 15.6048 11.4602 15.7102C11.3548 15.8157 11.2117 15.875 11.0625 15.875ZM1.5 14.75H10.5V13.0625C10.5 11.869 10.0259 10.7244 9.18198 9.88052C8.33807 9.03661 7.19347 8.5625 6 8.5625C4.80653 8.5625 3.66193 9.03661 2.81802 9.88052C1.97411 10.7244 1.5 11.869 1.5 13.0625V14.75Z" fill="#1E4B4A"/>
</svg>
