<svg width="20" height="24" viewBox="0 0 20 24" fill="none" xmlns="http://www.w3.org/2000/svg">
<path d="M17.8844 0.84375H2.11563C1.38292 0.84375 0.765625 1.42031 0.765625 2.12845V21.1453C0.765625 21.1516 0.776125 21.1581 0.776125 21.1644C0.776125 22.2627 1.71719 23.1562 2.86094 23.1562H16.7376C17.4704 23.1562 18.0625 22.58 18.0625 21.8719V20.0984C18.7188 20.0123 19.2344 19.4744 19.2344 18.8257V2.12813C19.2344 1.42003 18.6172 0.84375 17.8844 0.84375ZM17.125 21.8719C17.125 22.0631 16.9534 22.2188 16.7376 22.2188H2.86094C2.23412 22.2188 1.72412 21.7458 1.72412 21.1645V21.1505C1.73214 20.5754 2.23905 20.1094 2.86094 20.1094H17.125V21.8719ZM18.2969 18.8258C18.2969 19.0172 18.1002 19.172 17.8844 19.172H2.86094C2.45212 19.1715 2.05122 19.2848 1.70312 19.4992V2.12845C1.70312 1.93706 1.9 1.78125 2.11563 1.78125H17.8844C18.1 1.78125 18.2969 1.93697 18.2969 2.12813V18.8258Z" fill="#1D1D1D"/>
<path d="M8.10099 10.9175L8.42527 4.31686C8.4342 4.13754 8.40625 3.95831 8.34316 3.79022C8.28007 3.62213 8.18318 3.46877 8.05848 3.33961C7.92537 3.20196 7.76592 3.09249 7.58964 3.01773C7.41335 2.94297 7.22382 2.90445 7.03234 2.90445C6.84085 2.90445 6.65133 2.94297 6.47504 3.01773C6.29875 3.09249 6.13931 3.20196 6.0062 3.33961C5.88149 3.46876 5.78461 3.62211 5.72152 3.79019C5.65844 3.95827 5.63051 4.13751 5.63945 4.31681L5.96373 10.9175C5.61688 11.1122 5.31602 11.3793 5.08159 11.7007C4.60056 12.3436 4.33557 13.191 4.33557 14.0866C4.33557 14.9823 4.60056 15.8298 5.08159 16.4726C5.59309 17.1561 6.2859 17.5325 7.03234 17.5325C7.77877 17.5325 8.47163 17.1561 8.98313 16.4726C9.46416 15.8297 9.72915 14.9823 9.72915 14.0866C9.72915 13.191 9.46416 12.3434 8.98313 11.7007C8.74868 11.3794 8.44782 11.1123 8.10099 10.9175ZM6.57582 4.27083C6.57362 4.2184 6.5822 4.16609 6.60102 4.11711C6.61983 4.06813 6.64849 4.02353 6.68523 3.98606C6.73076 3.94039 6.78487 3.90415 6.84443 3.87942C6.904 3.85469 6.96786 3.84196 7.03236 3.84196C7.09686 3.84196 7.16072 3.85469 7.22029 3.87942C7.27985 3.90415 7.33396 3.94039 7.37949 3.98606C7.41622 4.02354 7.44488 4.06815 7.4637 4.11714C7.48251 4.16612 7.49109 4.21845 7.4889 4.27087L7.17577 10.6459C7.1282 10.6428 7.08038 10.6412 7.03234 10.6412C6.98429 10.6412 6.93652 10.6429 6.88895 10.6459L6.57582 4.27083ZM8.23252 15.9112C7.90238 16.3524 7.47615 16.5955 7.03252 16.5955C6.5889 16.5955 6.16252 16.3526 5.83252 15.9112C5.47196 15.4294 5.2734 14.7815 5.2734 14.0869C5.2734 13.3923 5.47196 12.7443 5.83252 12.2625C6.16266 11.8213 6.5889 11.5781 7.03252 11.5781C7.47615 11.5781 7.90257 11.8211 8.23252 12.2625C8.59309 12.7443 8.79165 13.3922 8.79165 14.0869C8.79165 14.7816 8.59309 15.4294 8.23252 15.9112ZM15.5746 3.53813C15.562 3.32534 15.4696 3.12513 15.316 2.97737C15.1623 2.82961 14.9587 2.74514 14.7456 2.74078C14.5324 2.73643 14.3255 2.8125 14.1659 2.95386C14.0064 3.09522 13.9059 3.29149 13.8846 3.50358C13.8841 3.50803 13.8838 3.51253 13.8835 3.51694L13.8336 4.32033L13.7837 3.51694C13.7834 3.51248 13.7831 3.49711 13.7827 3.49266C13.7622 3.28157 13.6641 3.08559 13.5075 2.94264C13.3508 2.79968 13.1467 2.7199 12.9346 2.71875H12.9332C12.929 2.71875 12.9248 2.72953 12.9206 2.72953C12.7108 2.73134 12.5092 2.81099 12.3548 2.95303C12.2004 3.09507 12.1042 3.28938 12.085 3.49828C12.0846 3.50273 12.0842 3.50995 12.084 3.51436L12.0339 4.31977L11.984 3.51628C11.9837 3.51183 11.9834 3.50775 11.9829 3.5033C11.9635 3.29499 11.8671 3.10142 11.7126 2.96034C11.5581 2.81926 11.3566 2.7408 11.1474 2.74027C11.1427 2.74027 11.138 2.74027 11.1336 2.74027C10.917 2.73885 10.7083 2.82152 10.5514 2.97086C10.3945 3.1202 10.3017 3.32458 10.2924 3.54098L10.2028 6.44653C10.2028 6.45122 10.2028 6.45619 10.2028 6.46102C10.2028 7.81613 10.8833 9.09905 11.8585 9.65695L11.5408 16.1203C11.5318 16.2996 11.5598 16.4789 11.6229 16.647C11.686 16.815 11.7829 16.9684 11.9076 17.0976C12.0407 17.2352 12.2001 17.3447 12.3764 17.4194C12.5527 17.4942 12.7422 17.5327 12.9337 17.5327C13.1252 17.5327 13.3147 17.4942 13.491 17.4194C13.6673 17.3447 13.8267 17.2352 13.9599 17.0976C14.0846 16.9684 14.1815 16.8151 14.2446 16.647C14.3076 16.4789 14.3356 16.2996 14.3266 16.1203L14.0091 9.65667C14.9851 9.09741 15.6646 7.81528 15.6646 6.46111C15.6646 6.45642 15.6646 6.45145 15.6646 6.44662L15.5746 3.53813ZM13.2808 16.4512C13.2353 16.4969 13.1812 16.5331 13.1216 16.5578C13.062 16.5826 12.9982 16.5953 12.9337 16.5953C12.8692 16.5953 12.8053 16.5826 12.7458 16.5578C12.6862 16.5331 12.6321 16.4969 12.5866 16.4512C12.5498 16.4137 12.5211 16.3691 12.5023 16.3201C12.4835 16.2712 12.4749 16.2188 12.4771 16.1664L12.7827 9.94608C12.8332 9.94978 12.8837 9.95217 12.9343 9.95217C12.9849 9.95217 13.0346 9.94978 13.0847 9.94613L13.3902 16.1664C13.3924 16.2189 13.3838 16.2712 13.365 16.3202C13.3462 16.3691 13.3175 16.4137 13.2808 16.4512ZM13.3533 8.93438C13.0829 9.04167 12.7816 9.0413 12.5114 8.93334C11.7441 8.63494 11.1427 7.55306 11.1401 6.46828L11.1693 5.52248L11.2061 6.11916C11.2134 6.23858 11.2657 6.35079 11.3526 6.43309C11.4394 6.51539 11.5543 6.56164 11.6739 6.5625H12.3939C12.5135 6.56165 12.6284 6.51539 12.7152 6.43307C12.8021 6.35074 12.8545 6.23851 12.8617 6.11906L12.9338 4.95769L13.0058 6.12019C13.0131 6.23947 13.0655 6.35151 13.1524 6.43363C13.2392 6.51575 13.354 6.56181 13.4735 6.5625H14.1933C14.313 6.56166 14.4279 6.51539 14.5148 6.43306C14.6016 6.35073 14.654 6.23848 14.6612 6.11902L14.6979 5.5275L14.7269 6.46917C14.7246 7.55391 14.1231 8.6348 13.3533 8.93438Z" fill="#1D1D1D"/>
</svg>
