<svg width="24" height="29" viewBox="0 0 24 29" fill="none" xmlns="http://www.w3.org/2000/svg">
<g clip-path="url(#clip0_2009_2246)">
<path d="M22.8297 10.9347C22.0334 9.04096 20.9129 7.97987 19.8124 7.46002C18.7187 6.93698 17.6901 6.94337 17.1298 6.94242C17.1248 6.94242 17.1211 6.94242 17.1181 6.94254C17.1167 6.94254 17.1141 6.94242 17.1091 6.94242C16.3648 6.93958 14.7763 6.941 13.3319 8.17088C12.6807 8.72146 12.0729 9.50466 11.5671 10.5824C11.3273 9.13115 10.9362 8.13578 10.4705 7.42409C10.0822 6.83462 9.62794 6.45673 9.20833 6.2474C8.81188 6.0474 8.46331 5.99965 8.24889 5.99539C8.23081 5.99433 8.21284 5.99268 8.1944 5.99268H3.62771C3.60939 5.99268 3.59142 5.99433 3.57333 5.99539C3.35892 5.99965 3.00987 6.04728 2.61366 6.24716C1.97786 6.56252 1.29229 7.25211 0.81275 8.47431C0.327417 9.70123 0.00141841 11.4748 0 14.1532C0 14.8455 0.0221036 15.5983 0.0702114 16.4179C0.0996434 16.9204 0.51642 17.3082 1.01334 17.3082C1.03201 17.3082 1.05069 17.3077 1.06948 17.3065C1.59087 17.2758 1.98873 16.8284 1.95824 16.3071C1.91202 15.5209 1.8911 14.8048 1.8911 14.153C1.88708 11.291 2.30445 9.68315 2.71425 8.84368V26.5738C2.71425 27.3811 3.36873 28.0351 4.17557 28.0351C4.98264 28.0351 5.63712 27.3811 5.63712 26.5738V15.9038H6.18498V26.5739C6.18498 27.3813 6.83946 28.0353 7.6463 28.0353C8.45338 28.0353 9.10786 27.3813 9.10786 26.5739V8.84888C9.17795 8.99262 9.24852 9.15751 9.31837 9.34982C9.65158 10.2733 9.93184 11.7883 9.93066 14.1534C9.93066 14.8051 9.90973 15.5212 9.86399 16.3075C9.83349 16.8286 10.2315 17.276 10.753 17.3066C10.7717 17.3077 10.7902 17.3083 10.8088 17.3083C11.3057 17.3083 11.7226 16.9205 11.752 16.4178C11.7566 16.3376 11.7599 16.261 11.7642 16.1822C11.7669 16.1659 11.7699 16.1496 11.7716 16.1329C11.9807 14.1063 12.365 12.6163 12.824 11.5348C13.2015 10.653 13.6166 10.045 14.0366 9.61376L11.9976 20.1717H14.5586V26.8535C14.5586 27.5063 15.0878 28.0355 15.7406 28.0355C16.3932 28.0355 16.9226 27.5063 16.9226 26.8535V20.1717H17.3167V26.8535C17.3167 27.5063 17.8457 28.0355 18.4987 28.0355C19.1512 28.0355 19.6807 27.5063 19.6807 26.8535V20.1717H22.2416L20.2026 9.61364C20.6219 10.0446 21.0408 10.654 21.4149 11.5348C21.8739 12.6163 22.2584 14.1063 22.4675 16.1329C22.511 16.5549 22.8886 16.8618 23.3105 16.8183C23.7327 16.7746 24.0397 16.3971 23.996 15.9751C23.7745 13.8348 23.365 12.1987 22.8297 10.9347Z" fill="#40918B"/>
<path d="M5.91111 5.31904C7.37992 5.31904 8.57063 4.12834 8.57063 2.65952C8.57063 1.19071 7.37992 0 5.91111 0C4.4423 0 3.25159 1.19071 3.25159 2.65952C3.25159 4.12834 4.4423 5.31904 5.91111 5.31904Z" fill="#40918B"/>
<path d="M17.1196 6.20471C18.5232 6.20471 19.661 5.06692 19.661 3.66339C19.661 2.25986 18.5232 1.12207 17.1196 1.12207C15.7161 1.12207 14.5783 2.25986 14.5783 3.66339C14.5783 5.06692 15.7161 6.20471 17.1196 6.20471Z" fill="#40918B"/>
</g>
<defs>
<clipPath id="clip0_2009_2246">
<rect width="24" height="28.0355" fill="white"/>
</clipPath>
</defs>
</svg>
