<svg width="24" height="24" viewBox="0 0 24 24" fill="none" xmlns="http://www.w3.org/2000/svg">
<path d="M6.014 23.998C5.8 23.998 5.742 23.947 5.638 23.828C5.5 23.671 5.5 23.671 5.5 11.994V0.502C5.5 0.298 5.624 0.113 5.814 0.038C5.87471 0.0134182 5.93951 0.000525469 6.005 0L10.293 0C10.3858 3.11334e-06 10.4767 0.0258203 10.5557 0.0745635C10.6346 0.123307 10.6984 0.193053 10.74 0.276C10.752 0.299 10.789 0.409 10.797 0.433L10.793 0.422C10.792 0.422 10.848 0.576 10.926 0.809L11.593 2.762L11.594 2.766L11.767 3.289C11.7769 3.3179 11.784 3.34771 11.788 3.378L13.21 7.624L13.223 0.51C13.2233 0.377565 13.2761 0.250645 13.3698 0.157093C13.4635 0.0635409 13.5906 0.0109997 13.723 0.011L17.994 0.009C18.1266 0.009 18.2538 0.0616784 18.3476 0.155447C18.4413 0.249215 18.494 0.376392 18.494 0.509L18.501 11.981C18.507 23.71 18.507 23.71 18.307 23.877C18.147 24.011 18.004 24.024 17.489 23.961C16.3929 23.8229 15.2922 23.7245 14.189 23.666C13.382 23.628 13.367 23.627 13.22 23.48C13.1822 23.4417 13.1505 23.3979 13.126 23.35C13.108 23.315 13.102 23.3 12.323 20.979L12.313 20.945L10.809 16.451L10.806 18.251C10.798 23.619 10.798 23.619 10.248 23.619C10.113 23.62 8.743 23.711 8.26 23.761C7.949 23.789 7.341 23.857 6.903 23.913C6.445 23.967 6.182 23.998 6.014 23.998ZM13.571 23.127H13.581H13.571ZM13.938 22.652L14.232 22.668C15.328 22.718 16.61 22.846 17.49 22.954C17.498 21.499 17.501 17.139 17.499 11.981L17.492 1.01H14.221L14.205 10.679C14.2047 10.7975 14.1624 10.9121 14.0854 11.0023C14.0085 11.0925 13.9021 11.1524 13.7851 11.1714C13.6681 11.1904 13.5481 11.1672 13.4466 11.1059C13.3451 11.0447 13.2687 10.9494 13.231 10.837L10.817 3.631C10.8061 3.601 10.7991 3.56976 10.796 3.538L10.004 1.206L9.935 1H6.502L6.5 11.994C6.5 17.213 6.505 21.498 6.51 22.951L6.779 22.921C7.77836 22.7924 8.782 22.6997 9.788 22.643C9.8 22.033 9.802 20.643 9.806 18.249L9.812 13.4C9.81227 13.2815 9.85464 13.1669 9.93156 13.0767C10.0085 12.9865 10.1149 12.9266 10.2319 12.9076C10.3489 12.8886 10.4689 12.9118 10.5704 12.9731C10.6719 13.0343 10.7483 13.1296 10.786 13.242L13.27 20.657L13.281 20.691L13.938 22.652Z" fill="#1D1D1D"/>
</svg>
