<svg width="24" height="24" viewBox="0 0 24 24" fill="none" xmlns="http://www.w3.org/2000/svg">
<g clip-path="url(#clip0_1380_14949)">
<path d="M16 21.5C16 21.6326 16.0527 21.7598 16.1464 21.8536C16.2402 21.9473 16.3674 22 16.5 22H18.5C18.6326 22 18.7598 21.9473 18.8536 21.8536C18.9473 21.7598 19 21.6326 19 21.5C19 21.3674 18.9473 21.2402 18.8536 21.1464C18.7598 21.0527 18.6326 21 18.5 21H16.5C16.3674 21 16.2402 21.0527 16.1464 21.1464C16.0527 21.2402 16 21.3674 16 21.5ZM17.5 2C17.2033 2 16.9133 2.08797 16.6666 2.2528C16.42 2.41762 16.2277 2.65189 16.1142 2.92597C16.0007 3.20006 15.9709 3.50166 16.0288 3.79264C16.0867 4.08361 16.2296 4.35088 16.4393 4.56066C16.6491 4.77044 16.9164 4.9133 17.2074 4.97118C17.4983 5.02906 17.7999 4.99935 18.074 4.88582C18.3481 4.77229 18.5824 4.58003 18.7472 4.33336C18.912 4.08668 19 3.79667 19 3.5C19 3.10218 18.842 2.72064 18.5607 2.43934C18.2794 2.15804 17.8978 2 17.5 2ZM17.5 4C17.4011 4 17.3044 3.97068 17.2222 3.91573C17.14 3.86079 17.0759 3.7827 17.0381 3.69134C17.0002 3.59998 16.9903 3.49945 17.0096 3.40245C17.0289 3.30546 17.0765 3.21637 17.1464 3.14645C17.2164 3.07652 17.3055 3.0289 17.4025 3.00961C17.4994 2.99031 17.6 3.00022 17.6913 3.03806C17.7827 3.0759 17.8608 3.13999 17.9157 3.22221C17.9707 3.30444 18 3.40111 18 3.5C18 3.63261 17.9473 3.75979 17.8536 3.85355C17.7598 3.94732 17.6326 4 17.5 4ZM12 21C13.1867 21 14.3467 20.6481 15.3334 19.9888C16.3201 19.3295 17.0892 18.3925 17.5433 17.2961C17.9974 16.1997 18.1162 14.9933 17.8847 13.8295C17.6532 12.6656 17.0818 11.5965 16.2426 10.7574C15.4035 9.91824 14.3344 9.3468 13.1705 9.11529C12.0067 8.88378 10.8003 9.0026 9.7039 9.45672C8.60754 9.91085 7.67047 10.6799 7.01118 11.6666C6.35189 12.6533 6 13.8133 6 15C6 16.5913 6.63214 18.1174 7.75736 19.2426C8.88258 20.3679 10.4087 21 12 21ZM12 10C12.9889 10 13.9556 10.2932 14.7779 10.8427C15.6001 11.3921 16.241 12.173 16.6194 13.0866C16.9978 14.0002 17.0969 15.0055 16.9039 15.9755C16.711 16.9454 16.2348 17.8363 15.5355 18.5355C14.8363 19.2348 13.9454 19.711 12.9755 19.9039C12.0055 20.0969 11.0002 19.9978 10.0866 19.6194C9.17295 19.241 8.39206 18.6001 7.84265 17.7779C7.29324 16.9556 7 15.9889 7 15C7 13.6739 7.52678 12.4021 8.46447 11.4645C9.40215 10.5268 10.6739 10 12 10ZM18.5 0H5.5C4.83696 0 4.20107 0.263392 3.73223 0.732233C3.26339 1.20107 3 1.83696 3 2.5V21.5C3 21.8283 3.06466 22.1534 3.1903 22.4567C3.31594 22.76 3.50009 23.0356 3.73223 23.2678C3.96438 23.4999 4.23998 23.6841 4.54329 23.8097C4.84661 23.9353 5.1717 24 5.5 24H18.5C18.8283 24 19.1534 23.9353 19.4567 23.8097C19.76 23.6841 20.0356 23.4999 20.2678 23.2678C20.4999 23.0356 20.6841 22.76 20.8097 22.4567C20.9353 22.1534 21 21.8283 21 21.5V2.5C21 1.83696 20.7366 1.20107 20.2678 0.732233C19.7989 0.263392 19.163 0 18.5 0V0ZM6 1H11V3.5C11 3.63261 10.9473 3.75979 10.8536 3.85355C10.7598 3.94732 10.6326 4 10.5 4H6.5C6.36739 4 6.24021 3.94732 6.14645 3.85355C6.05268 3.75979 6 3.63261 6 3.5V1ZM20 21.5C20 21.8978 19.842 22.2794 19.5607 22.5607C19.2794 22.842 18.8978 23 18.5 23H5.5C5.10218 23 4.72064 22.842 4.43934 22.5607C4.15804 22.2794 4 21.8978 4 21.5V7H20V21.5ZM20 6H4V2.5C4.00087 2.19053 4.09744 1.8889 4.27647 1.63647C4.4555 1.38404 4.70823 1.19316 5 1.09V3.5C5 3.89782 5.15804 4.27936 5.43934 4.56066C5.72064 4.84196 6.10218 5 6.5 5H10.5C10.8978 5 11.2794 4.84196 11.5607 4.56066C11.842 4.27936 12 3.89782 12 3.5V1H18.5C18.8978 1 19.2794 1.15804 19.5607 1.43934C19.842 1.72064 20 2.10218 20 2.5V6ZM14.5 4C14.4011 4 14.3044 4.02932 14.2222 4.08427C14.14 4.13921 14.0759 4.2173 14.0381 4.30866C14.0002 4.40002 13.9903 4.50055 14.0096 4.59755C14.0289 4.69454 14.0765 4.78363 14.1464 4.85355C14.2164 4.92348 14.3055 4.9711 14.4025 4.99039C14.4994 5.00969 14.6 4.99978 14.6913 4.96194C14.7827 4.9241 14.8608 4.86001 14.9157 4.77779C14.9707 4.69556 15 4.59889 15 4.5C15 4.36739 14.9473 4.24021 14.8536 4.14645C14.7598 4.05268 14.6326 4 14.5 4ZM12 19C12.7911 19 13.5645 18.7654 14.2223 18.3259C14.8801 17.8864 15.3928 17.2616 15.6955 16.5307C15.9983 15.7998 16.0775 14.9956 15.9231 14.2196C15.7688 13.4437 15.3878 12.731 14.8284 12.1716C14.269 11.6122 13.5563 11.2312 12.7804 11.0769C12.0044 10.9225 11.2002 11.0017 10.4693 11.3045C9.73836 11.6072 9.11365 12.1199 8.67412 12.7777C8.2346 13.4355 8 14.2089 8 15C8 16.0609 8.42143 17.0783 9.17157 17.8284C9.92172 18.5786 10.9391 19 12 19ZM12 12C12.7076 12.0019 13.3917 12.2538 13.9315 12.7113C14.4713 13.1688 14.8321 13.8023 14.95 14.5H14.5C14.3674 14.5 14.2402 14.5527 14.1464 14.6464C14.0527 14.7402 14 14.8674 14 15C14 15.1326 14.0527 15.2598 14.1464 15.3536C14.2402 15.4473 14.3674 15.5 14.5 15.5H14.95C14.8546 16.0643 14.5998 16.5896 14.2156 17.0138C13.8315 17.438 13.334 17.7434 12.7819 17.8941C12.2297 18.0448 11.646 18.0344 11.0996 17.8642C10.5532 17.694 10.0669 17.371 9.69808 16.9334C9.32924 16.4958 9.09327 15.9618 9.01801 15.3945C8.94276 14.8271 9.03135 14.2501 9.27334 13.7315C9.51534 13.2129 9.90063 12.7743 10.3838 12.4675C10.8669 12.1607 11.4277 11.9985 12 12Z" fill="#1D1D1D"/>
</g>
<defs>
<clipPath id="clip0_1380_14949">
<rect width="24" height="24" fill="white"/>
</clipPath>
</defs>
</svg>
