<svg width="24" height="24" viewBox="0 0 24 24" fill="none" xmlns="http://www.w3.org/2000/svg">
<path d="M14.19 5.5H9.5C9.225 5.5 9 5.725 9 6V18C9 18.275 9.225 18.5 9.5 18.5H11.375C11.65 18.5 11.875 18.275 11.875 18V12.875H14.19C16.225 12.875 17.88 11.22 17.88 9.185C17.88 7.15 16.22 5.5 14.19 5.5ZM14.19 11.875H11.375C11.1 11.875 10.875 12.1 10.875 12.375V17.5H10V6.5H14.19C15.67 6.5 16.88 7.705 16.88 9.19C16.88 10.675 15.67 11.875 14.19 11.875Z" fill="#1D1D1D"/>
<path d="M13.815 7H11.375C11.1 7 10.875 7.225 10.875 7.5V10.875C10.875 11.15 11.1 11.375 11.375 11.375H13.815C15.02 11.375 16.005 10.395 16.005 9.185C16.005 7.975 15.02 7 13.815 7ZM13.815 10.375H11.875V8H13.815C14.47 8 15.005 8.535 15.005 9.19C15.005 9.845 14.465 10.375 13.815 10.375Z" fill="#1D1D1D"/>
<path d="M12 1.5C6.21 1.5 1.5 6.21 1.5 12C1.5 17.79 6.21 22.5 12 22.5C17.79 22.5 22.5 17.79 22.5 12C22.5 6.21 17.79 1.5 12 1.5ZM12 21.5C6.76 21.5 2.5 17.24 2.5 12C2.5 6.76 6.76 2.5 12 2.5C17.24 2.5 21.5 6.76 21.5 12C21.5 17.24 17.24 21.5 12 21.5Z" fill="#1D1D1D"/>
</svg>
