<svg width="26" height="26" viewBox="0 0 26 26" fill="none" xmlns="http://www.w3.org/2000/svg">
<g clip-path="url(#clip0_2009_6238)">
<path d="M15.668 18.7477C16.2803 18.1455 15.9499 16.7624 14.9496 15.1646C15.3131 15.1079 15.653 15.0213 15.9101 14.8885C16.8351 14.4116 17.4597 13.5424 17.9325 12.6433C18.4407 11.6788 18.7818 10.6186 19.445 9.74036C19.557 9.59189 19.669 9.45877 19.7806 9.33353C21.2115 9.50485 22.3538 9.81204 22.3538 9.81204L22.7903 8.70419C22.2394 8.5067 21.6745 8.35044 21.1003 8.23671C21.452 8.03704 21.6815 7.97481 21.6815 7.97481L21.2679 6.8579C20.6047 7.13792 20.0665 7.55105 19.6158 8.0457C17.9313 7.95157 16.235 8.28673 14.8967 9.32329C13.8905 10.1031 13.2107 11.1842 12.5711 12.2656C12.0044 11.7102 11.401 11.1935 10.7648 10.719C10.8855 10.5209 11.0148 10.3429 11.154 10.2055C11.995 9.37843 13.1046 8.84951 13.8325 7.90313C15.3624 5.91585 14.2434 2.80064 12.9847 1.1875C12.7592 1.4045 12.3862 1.72075 12.1054 1.97044C13.4433 3.33901 14.379 5.73509 13.3305 7.52545C12.7446 8.52618 11.6618 9.15395 10.9048 10.0137C10.7739 10.1629 10.6568 10.352 10.5507 10.5607C8.57089 9.14252 6.75393 8.57186 6.03393 9.27997C5.96244 9.35302 5.90355 9.4374 5.85965 9.52966L5.85689 9.52691L5.83757 9.58322C5.81076 9.64427 5.78631 9.70767 5.76975 9.77699L0.815308 24.0298L15.2713 18.9816L15.2674 18.9777C15.4227 18.9277 15.5595 18.854 15.668 18.7477ZM3.69097 22.1914L2.4844 21.6298L3.29864 19.2865L7.0331 21.0241L3.69097 22.1914ZM10.3748 19.8571L4.11367 16.9432L4.92791 14.6003L9.60673 16.9459C6.81387 15.1304 5.74215 12.2566 5.74215 12.2566L6.02053 11.4559C6.51538 12.7063 7.60405 14.2635 9.10005 15.7333C10.6087 17.2165 12.2076 18.2909 13.4855 18.7709L10.3748 19.8571ZM12.7797 12.4767C13.4335 11.5406 14.1073 10.5958 15.0442 9.92349C15.9361 9.28312 17.384 9.16615 18.7566 9.24295C18.2929 10.0519 17.9502 10.9494 17.6427 11.8115C17.2708 12.8552 16.7724 13.9374 15.8222 14.5774C15.5659 14.7499 15.2066 14.8759 14.823 14.9693C14.2958 14.1623 13.6042 13.3093 12.7797 12.4767Z" fill="#EB6B69"/>
<path d="M9.1087 8.67027C9.50379 8.67027 8.3193 7.48877 8.51724 6.4526C9.27588 6.39431 11.01 6.73577 10.0006 5.35105C11.1425 5.55191 11.734 4.70044 10.656 3.89348C11.0148 3.91868 11.5723 3.24287 11.1721 3.1574C9.88982 2.88605 9.38787 3.5788 10.2017 4.57796C9.34607 4.41885 8.64854 4.81623 9.29126 5.70865C6.82055 5.40107 8.22624 8.67027 9.1087 8.67027Z" fill="#EB6B69"/>
<path d="M17.591 7.61996C17.9612 7.45298 17.3331 6.34985 17.1289 6.06787C18.6915 5.90088 18.6323 5.43577 17.6525 4.43937C20.3164 4.52877 17.7349 3.01645 18.0969 2.41783C18.4103 1.89876 19.372 2.44303 19.2829 2.15396C18.9825 1.1871 16.1324 1.84086 17.936 3.64619C16.3619 3.67691 16.2109 4.19086 17.384 5.25618C15.3407 5.27863 17.0078 7.88226 17.591 7.61996Z" fill="#EB6B69"/>
<path d="M24.354 11.5156C23.7302 11.6901 23.634 11.6247 23.7172 12.245C22.2764 11.5826 20.752 10.6614 21.6771 13.102C20.0407 12.1288 20.1223 12.9811 19.8163 14.3835C19.4181 14.0736 18.8523 13.2568 18.8523 13.2568L18.2529 13.7652C18.2529 13.7652 19.3511 15.3122 19.8932 15.2244C20.37 15.1476 20.6294 14.2477 20.6558 13.4545C22.1739 14.0945 22.9006 14.1799 22.2062 12.3084C23.4199 12.9894 24.908 13.59 24.354 11.5156Z" fill="#EB6B69"/>
<path d="M2.41175 4.50977L3.52685 5.62392L2.41175 6.73768L1.29626 5.62392L2.41175 4.50977Z" fill="#EB6B69"/>
<path d="M5.08318 9.1418L3.9673 10.2556L2.85181 9.14101L3.96769 8.02686L5.08318 9.1418Z" fill="#EB6B69"/>
<path d="M6.81654 2.7627L7.93163 3.87645L6.81614 4.991L5.70105 3.87645L6.81654 2.7627Z" fill="#EB6B69"/>
<path d="M18.9577 18.3127L17.8418 17.1985L18.9569 16.084L20.0728 17.1981L18.9577 18.3127Z" fill="#EB6B69"/>
<path d="M16.4711 22.1337L15.356 21.0199L16.4711 19.9058L17.5865 21.0199L16.4711 22.1337Z" fill="#EB6B69"/>
<path d="M21.3637 23.0134L20.2478 21.8992L21.3625 20.7847L22.4784 21.8988L21.3637 23.0134Z" fill="#EB6B69"/>
<path d="M22.4787 17.9393L21.3636 16.8252L22.4787 15.7114L23.5938 16.8252L22.4787 17.9393Z" fill="#EB6B69"/>
<path d="M20.6172 3.94434L21.7323 5.05809L20.6168 6.17225L19.5017 5.05809L20.6172 3.94434Z" fill="#EB6B69"/>
</g>
<defs>
<clipPath id="clip0_2009_6238">
<rect width="25.2355" height="25.2053" fill="white" transform="translate(0.0266113 0.00585938)"/>
</clipPath>
</defs>
</svg>
