<svg width="16" height="18" viewBox="0 0 16 18" fill="none" xmlns="http://www.w3.org/2000/svg">
<path d="M7.26441 0.000127537L7.39709 0.0146941L14.8972 1.51469C15.2039 1.57605 15.4354 1.81938 15.4885 2.11876L15.5 2.25013V15.7455C15.5 16.0582 15.3068 16.333 15.0237 16.4438L14.8972 16.4809L7.39709 17.9809C7.17676 18.025 6.94828 17.9679 6.77452 17.8255C6.6355 17.7115 6.54322 17.5525 6.51187 17.3784L6.5 17.2455V0.750128L6.51187 0.617204C6.54322 0.443114 6.6355 0.284088 6.77452 0.170124C6.91352 0.0561598 7.08755 -0.0031321 7.26441 0.000127537ZM5 1.50013V3.00013H2V14.9955H5V16.4955H1.25C0.881813 16.4955 0.575588 16.2301 0.512084 15.8803L0.5 15.7455V2.25013C0.5 1.88194 0.765316 1.57572 1.11519 1.51221L1.25 1.50013H5ZM8 1.66499V16.3306L14 15.1306V2.86499L8 1.66499ZM10.25 8.24774C10.6642 8.24774 11 8.58354 11 8.99774C11 9.41197 10.6642 9.74774 10.25 9.74774C9.83579 9.74774 9.5 9.41197 9.5 8.99774C9.5 8.58354 9.83579 8.24774 10.25 8.24774Z" fill="#1E4B4A"/>
</svg>
