<svg width="24" height="24" viewBox="0 0 24 24" fill="none" xmlns="http://www.w3.org/2000/svg">
<path d="M6.17563 4.61956C6.07378 4.61956 5.97611 4.57911 5.9041 4.50709C5.83208 4.43508 5.79163 4.33741 5.79163 4.23556C5.79163 4.13372 5.83208 4.03605 5.9041 3.96403C5.97611 3.89202 6.07378 3.85156 6.17563 3.85156C6.27747 3.85156 6.37514 3.89202 6.44715 3.96403C6.51917 4.03605 6.55963 4.13372 6.55963 4.23556C6.55963 4.33741 6.51917 4.43508 6.44715 4.50709C6.37514 4.57911 6.27747 4.61956 6.17563 4.61956Z" fill="black"/>
<path d="M7.23815 20.1804C7.19015 20.1804 7.14215 20.1785 7.09151 20.1739L7.07591 20.172L5.22359 19.9301C5.02611 19.9043 4.83564 19.8399 4.66306 19.7405C4.49048 19.6411 4.33918 19.5086 4.21778 19.3508C4.09638 19.1929 4.00728 19.0126 3.95555 18.8203C3.90383 18.628 3.89049 18.4274 3.91631 18.2299C3.92624 18.1533 3.95903 18.0815 4.01041 18.0238C4.06179 17.9661 4.12936 17.9253 4.20431 17.9066C4.80935 17.7576 4.82351 17.4633 4.62287 16.1585C4.48607 15.2681 4.30223 14.0705 4.57487 12.6818C3.80429 12.2898 3.15731 11.6921 2.70565 10.9549C2.25398 10.2177 2.01528 9.36988 2.01599 8.50534C2.01599 5.9215 4.11815 3.81934 6.70199 3.81934C9.28583 3.81934 11.388 5.9215 11.388 8.50534C11.391 9.51741 11.0634 10.5028 10.4551 11.3117C9.88571 12.0691 9.10194 12.6381 8.20535 12.9449C8.14847 13.0478 8.07719 13.2888 8.09567 13.8441C8.11391 14.3961 8.21063 15.0681 8.31287 15.7795C8.55887 17.4905 8.79143 19.1066 8.10719 19.8285C7.95023 19.9941 7.67615 20.1804 7.23815 20.1804ZM7.16615 19.4095C7.39823 19.4287 7.49567 19.3565 7.54895 19.3003C7.66895 19.1745 7.80623 18.858 7.78751 18.0645C7.77215 17.4201 7.66031 16.6418 7.55207 15.8889C7.32287 14.2946 7.12487 12.9177 7.70495 12.3429C7.74881 12.2993 7.80259 12.2671 7.86167 12.2489C8.66245 12.0037 9.36301 11.5072 9.85966 10.8329C10.3563 10.1586 10.6227 9.34231 10.6193 8.50486C10.6193 6.34486 8.86175 4.58686 6.70127 4.58686C4.54079 4.58686 2.78399 6.3451 2.78399 8.50534C2.78333 9.27371 3.00881 10.0253 3.43234 10.6664C3.85588 11.3075 4.45873 11.8098 5.16575 12.1106C5.24921 12.1463 5.31734 12.2103 5.35807 12.2914C5.39879 12.3725 5.40948 12.4654 5.38823 12.5537C5.05799 13.9274 5.23823 15.0998 5.38295 16.0418C5.47655 16.6509 5.55743 17.1773 5.47055 17.6114C5.38079 18.0588 5.11631 18.3756 4.68263 18.5568C4.71052 18.7136 4.78765 18.8574 4.90284 18.9674C5.01802 19.0774 5.16526 19.1479 5.32319 19.1685L7.16615 19.4095Z" fill="black"/>
<path d="M7.88329 15.872C7.79307 15.8724 7.70558 15.8411 7.63618 15.7834C7.56678 15.7258 7.51989 15.6455 7.50374 15.5568C7.48759 15.468 7.50321 15.3764 7.54786 15.298C7.59252 15.2196 7.66334 15.1594 7.74793 15.128L9.09793 14.6197C9.13125 14.6072 9.16178 14.5882 9.18776 14.5639C9.21375 14.5395 9.23468 14.5103 9.24937 14.4779C9.26406 14.4455 9.27221 14.4105 9.27336 14.3749C9.27452 14.3393 9.26865 14.3038 9.25609 14.2705L8.54089 12.3712C8.53921 12.3678 8.53777 12.3644 8.53633 12.3611C8.49626 12.2675 8.49496 12.1619 8.53271 12.0674C8.57047 11.9729 8.64419 11.8973 8.73769 11.8571H8.73961C8.78727 11.8368 8.83856 11.8263 8.89037 11.8263C8.94219 11.8263 8.99347 11.8368 9.04112 11.8572C9.08877 11.8775 9.1318 11.9073 9.16763 11.9448C9.20346 11.9822 9.23135 12.0265 9.24961 12.075L9.97489 14.0003C10.023 14.128 10.0454 14.2639 10.041 14.4003C10.0365 14.5367 10.0052 14.6709 9.94891 14.7952C9.8926 14.9196 9.81235 15.0316 9.71274 15.1249C9.61314 15.2182 9.49613 15.2909 9.36841 15.339L8.01865 15.8473C7.97538 15.8636 7.92953 15.872 7.88329 15.872ZM6.70201 11.5708C6.09442 11.5708 5.50048 11.3906 4.99529 11.053C4.49011 10.7155 4.09636 10.2357 3.86385 9.67436C3.63134 9.11303 3.5705 8.49535 3.68903 7.89944C3.80757 7.30353 4.10015 6.75615 4.52977 6.32653C4.9594 5.8969 5.50678 5.60432 6.10269 5.48579C6.6986 5.36725 7.31628 5.42809 7.87761 5.6606C8.43894 5.89311 8.91873 6.28686 9.25628 6.79205C9.59384 7.29724 9.77401 7.89117 9.77401 8.49876C9.77337 9.31331 9.44951 10.0943 8.87354 10.6703C8.29756 11.2463 7.51656 11.5701 6.70201 11.5708ZM6.70201 6.19668C6.24632 6.19668 5.80086 6.33181 5.42197 6.58497C5.04308 6.83814 4.74777 7.19798 4.57339 7.61898C4.399 8.03998 4.35338 8.50324 4.44228 8.95017C4.53118 9.3971 4.75061 9.80763 5.07283 10.1299C5.39505 10.4521 5.80559 10.6715 6.25252 10.7604C6.69945 10.8493 7.16271 10.8037 7.58371 10.6293C8.00471 10.4549 8.36455 10.1596 8.61771 9.78071C8.87088 9.40182 9.00601 8.95637 9.00601 8.50068C9.00556 7.88976 8.76268 7.30398 8.33069 6.872C7.8987 6.44001 7.31293 6.19712 6.70201 6.19668Z" fill="black"/>
<path d="M9.20758 7.91155H4.19638C4.09453 7.91155 3.99686 7.8711 3.92485 7.79908C3.85283 7.72707 3.81238 7.6294 3.81238 7.52755C3.81238 7.42571 3.85283 7.32804 3.92485 7.25603C3.99686 7.18401 4.09453 7.14355 4.19638 7.14355H9.20758C9.30942 7.14355 9.40709 7.18401 9.47911 7.25603C9.55112 7.32804 9.59158 7.42571 9.59158 7.52755C9.59158 7.6294 9.55112 7.72707 9.47911 7.79908C9.40709 7.8711 9.30942 7.91155 9.20758 7.91155ZM9.20758 9.85555H4.19638C4.09453 9.85555 3.99686 9.8151 3.92485 9.74308C3.85283 9.67107 3.81238 9.5734 3.81238 9.47155C3.81238 9.36971 3.85283 9.27204 3.92485 9.20003C3.99686 9.12801 4.09453 9.08755 4.19638 9.08755H9.20758C9.30942 9.08755 9.40709 9.12801 9.47911 9.20003C9.55112 9.27204 9.59158 9.36971 9.59158 9.47155C9.59158 9.5734 9.55112 9.67107 9.47911 9.74308C9.40709 9.8151 9.30942 9.85555 9.20758 9.85555Z" fill="black"/>
<path d="M10.9212 9.73141C10.8193 9.73507 10.7202 9.69812 10.6456 9.6287C10.571 9.55927 10.5271 9.46306 10.5234 9.36121C10.5197 9.25937 10.5567 9.16024 10.6261 9.08564C10.6955 9.01104 10.7917 8.96707 10.8936 8.96341L19.1839 8.35597V5.57197L7.82519 4.74133C7.72335 4.73815 7.62694 4.69464 7.55718 4.62038C7.48741 4.54611 7.45001 4.44718 7.45319 4.34533C7.45637 4.24349 7.49988 4.14708 7.57415 4.07732C7.64841 4.00755 7.74735 3.97015 7.84919 3.97333C7.85855 3.97333 7.86839 3.97333 7.87775 3.97333L19.596 4.83373C19.6929 4.84084 19.7835 4.88441 19.8495 4.95567C19.9156 5.02693 19.9522 5.12057 19.9519 5.21773V8.71405C19.9522 8.81121 19.9156 8.90486 19.8495 8.97612C19.7835 9.04738 19.6929 9.09095 19.596 9.09805L10.9495 9.73045C10.9402 9.73117 10.9306 9.73141 10.9212 9.73141Z" fill="black"/>
<path d="M21.6 9.36541C21.584 9.36531 21.568 9.36419 21.552 9.36205L19.5202 9.09997C19.4274 9.08828 19.3421 9.04314 19.2802 8.97302C19.2184 8.90289 19.1842 8.8126 19.1842 8.71909V5.21701C19.1842 5.1235 19.2184 5.03321 19.2802 4.96309C19.3421 4.89296 19.4274 4.84782 19.5202 4.83613L21.552 4.57381C21.6061 4.567 21.661 4.57177 21.713 4.5878C21.7651 4.60382 21.8131 4.63074 21.854 4.66677C21.8949 4.70279 21.9276 4.74709 21.95 4.79673C21.9724 4.84638 21.984 4.90022 21.984 4.95469V8.98141C21.984 9.08326 21.9436 9.18093 21.8716 9.25294C21.7996 9.32496 21.7019 9.36541 21.6 9.36541ZM19.952 8.38141L21.216 8.54413V5.39149L19.952 5.55445V8.38141Z" fill="black"/>
</svg>
