<svg width="24" height="24" viewBox="0 0 24 24" fill="none" xmlns="http://www.w3.org/2000/svg">
<g clip-path="url(#clip0_1380_14953)">
<path d="M23.25 3H0.75C0.551088 3 0.360322 3.07902 0.21967 3.21967C0.0790176 3.36032 0 3.55109 0 3.75L0 18.75C0 18.9489 0.0790176 19.1397 0.21967 19.2803C0.360322 19.421 0.551088 19.5 0.75 19.5H11.25V22.5H8.25C8.05109 22.5 7.86032 22.579 7.71967 22.7197C7.57902 22.8603 7.5 23.0511 7.5 23.25C7.5 23.4489 7.57902 23.6397 7.71967 23.7803C7.86032 23.921 8.05109 24 8.25 24H15.75C15.9489 24 16.1397 23.921 16.2803 23.7803C16.421 23.6397 16.5 23.4489 16.5 23.25C16.5 23.0511 16.421 22.8603 16.2803 22.7197C16.1397 22.579 15.9489 22.5 15.75 22.5H12.75V19.5H23.25C23.4489 19.5 23.6397 19.421 23.7803 19.2803C23.921 19.1397 24 18.9489 24 18.75V3.75C24 3.55109 23.921 3.36032 23.7803 3.21967C23.6397 3.07902 23.4489 3 23.25 3ZM22.5 18H1.5V4.5H22.5V18Z" fill="#1D1D1D"/>
</g>
<defs>
<clipPath id="clip0_1380_14953">
<rect width="24" height="24" fill="white"/>
</clipPath>
</defs>
</svg>
