<svg width="24" height="24" viewBox="0 0 24 24" fill="none" xmlns="http://www.w3.org/2000/svg">
<g clip-path="url(#clip0_1380_14981)">
<path d="M8.71122 15.5685C9.59688 14.7225 10.7745 14.2505 11.9993 14.2505C13.224 14.2505 14.4017 14.7225 15.2873 15.5685M5.52924 12.3865C7.2589 10.6966 9.5811 9.75049 11.9993 9.75049C14.4174 9.75049 16.7396 10.6966 18.4693 12.3865M2.34973 9.20455C4.92236 6.67074 8.38837 5.25049 11.9993 5.25049C15.6102 5.25049 19.0762 6.67074 21.6488 9.20455" stroke="#1D1D1D" stroke-width="1.5" stroke-linecap="round" stroke-linejoin="round"/>
<path d="M12 19.875C12.6213 19.875 13.125 19.3713 13.125 18.75C13.125 18.1287 12.6213 17.625 12 17.625C11.3787 17.625 10.875 18.1287 10.875 18.75C10.875 19.3713 11.3787 19.875 12 19.875Z" fill="#1D1D1D"/>
</g>
<defs>
<clipPath id="clip0_1380_14981">
<rect width="24" height="24" fill="white"/>
</clipPath>
</defs>
</svg>
