<svg width="66" height="78" viewBox="0 0 66 78" fill="none"
    xmlns="http://www.w3.org/2000/svg">
    <g clip-path="url(#clip0_516_799)">
        <path
            d="M56.6245 38.2712C56.6245 43.1646 56.6272 48.0553 56.6245 52.9487C56.6219 55.9523 54.8124 57.7739 51.8132 57.7817C47.6322 57.7896 43.4539 57.787 39.2729 57.7817C37.7313 57.7817 37.0747 57.3021 36.5574 55.8265C35.625 53.1688 34.6927 50.5085 33.7551 47.8509C33.3953 46.8313 33.1826 46.6793 32.0849 46.6347C26.6117 46.412 22.0972 42.2394 21.4643 36.8218C20.7421 30.6364 24.9572 25.1769 31.1447 24.2936C37.2664 23.4182 43.1046 27.9184 43.769 34.0777C44.2523 38.5569 42.5505 42.0926 38.9367 44.7372C37.9939 45.4291 37.9072 45.61 38.2881 46.7029C38.8921 48.4354 39.4961 50.1678 40.1133 51.895C40.4495 52.8386 40.9248 53.1872 41.9307 53.1924C44.6672 53.2055 47.4011 53.2081 50.1377 53.1898C51.3878 53.1819 51.9498 52.6079 51.9524 51.3761C51.9577 42.4438 51.9524 33.5089 51.9577 24.5767C51.9577 23.565 51.5244 22.7839 50.8126 22.0999C46.4215 17.8985 42.0357 13.6918 37.6472 9.48515C36.3998 8.28999 35.1576 7.08958 33.9101 5.89704C32.9962 5.02426 32.2529 5.01902 31.3469 5.88918C26.6091 10.4261 21.8766 14.9682 17.1441 19.5077C16.2144 20.4015 15.2847 21.2952 14.3472 22.1811C13.6223 22.8652 13.2783 23.6856 13.2783 24.6894C13.2888 33.5561 13.2835 42.4255 13.2862 51.2922C13.2862 52.6394 13.835 53.1872 15.2191 53.1898C20.0776 53.1977 24.9362 53.1898 29.7948 53.1977C31.1184 53.2003 31.964 53.8608 32.2214 55.0481C32.4972 56.3271 31.5937 57.5983 30.2911 57.7477C29.9891 57.7817 29.6792 57.7791 29.3746 57.7791C24.1221 57.7817 18.8696 57.7057 13.6171 57.8079C10.5942 57.8682 8.56153 55.7374 8.58516 52.8071C8.66133 43.1095 8.62719 33.412 8.60092 23.7144C8.59567 22.0317 9.14193 20.6872 10.3658 19.5208C16.716 13.4769 23.0322 7.39886 29.3693 1.3418C31.2471 -0.453563 34.002 -0.453563 35.8772 1.34442C40.5992 5.86559 45.3106 10.3946 50.03 14.9184C51.6399 16.4622 53.234 18.0216 54.8781 19.5287C56.1255 20.6714 56.656 22.037 56.6403 23.7222C56.5983 28.5737 56.6245 33.4224 56.6245 38.2712ZM32.6337 42.0743C36.2842 42.069 39.2755 39.0968 39.2992 35.4511C39.3228 31.8027 36.2868 28.786 32.6022 28.7912C28.9544 28.7964 25.9526 31.7817 25.9342 35.417C25.9132 39.0628 28.9491 42.0795 32.6337 42.0743Z"
            fill="#FE4343" />
        <path
            d="M9.7274 66.8138C9.76417 65.9777 10.2238 65.8964 10.812 65.9069C12.7134 65.941 12.506 65.7208 12.5112 67.5791C12.5191 70.5879 12.5139 73.5994 12.5139 76.6083C12.5139 77.6855 12.5112 77.6855 11.403 77.6881C11.227 77.6881 11.051 77.675 10.8777 77.6908C10.2815 77.7406 9.76942 77.6724 9.72478 76.8416C6.19772 78.7313 3.13814 78.4377 0.892699 74.9519C-0.462446 72.8472 -0.252346 69.896 1.37068 67.9486C3.71592 65.1285 6.55752 64.9974 9.7274 66.8138ZM2.76784 71.8146C2.77047 73.9008 4.24905 75.3765 6.31853 75.3633C8.33812 75.3502 9.80619 73.8537 9.80619 71.8067C9.80619 69.765 8.26721 68.2212 6.24762 68.2369C4.2648 68.2553 2.76521 69.7964 2.76784 71.8146Z"
            fill="#373434" />
        <path
            d="M39.1022 73.083C37.8784 73.083 36.6519 73.0725 35.4281 73.0935C35.1918 73.0987 34.9554 73.2324 34.7217 73.3057C34.8057 73.5443 34.8425 73.8142 34.9817 74.0134C36.2002 75.7668 39.2651 75.9477 40.6333 74.3148C41.0273 73.8431 41.3398 73.7539 41.8283 74.0999C42.1303 74.3122 42.4638 74.4878 42.7947 74.6529C43.2727 74.8914 43.2885 75.1981 42.9891 75.5965C42.0804 76.7995 40.8986 77.591 39.4121 77.8479C35.2075 78.5739 32.4447 76.2622 31.8013 73.1721C30.798 68.36 35.0578 64.4364 39.7142 65.9199C42.6661 66.8608 43.9398 69.8435 43.7244 72.3648C43.6824 72.8576 43.4382 73.0935 42.9129 73.0856C41.6445 73.0646 40.376 73.0777 39.1075 73.0777C39.1022 73.0803 39.1022 73.083 39.1022 73.083ZM37.6972 70.635C37.6972 70.635 37.6972 70.6376 37.6972 70.635C38.4614 70.6376 39.2257 70.6455 39.9899 70.635C40.8119 70.6245 40.9537 70.3545 40.5152 69.639C39.8376 68.5303 38.8081 68.1451 37.558 68.2237C36.3631 68.2971 35.4176 68.7924 34.8241 69.8566C34.5221 70.3991 34.6507 70.614 35.2758 70.6297C36.0821 70.6481 36.8883 70.635 37.6972 70.635Z"
            fill="#373434" />
        <path
            d="M45.6315 71.7305C45.6315 70.0504 45.6446 68.3704 45.6262 66.6903C45.6209 66.1347 45.8179 65.8778 46.3904 65.9119C46.8054 65.9381 47.2203 65.9093 47.6353 65.9224C47.806 65.9276 48.0765 65.9276 48.129 66.022C48.4941 66.7035 48.8933 66.3024 49.3029 66.1059C52.6251 64.4861 56.0524 66.5829 56.1942 70.3807C56.2756 72.5823 56.2073 74.7865 56.2179 76.9908C56.2205 77.494 55.9946 77.6958 55.5035 77.6932C53.174 77.6774 53.5391 77.9264 53.5181 75.8533C53.4997 74.2178 53.5181 72.5797 53.5128 70.9442C53.5076 69.2039 52.7827 68.3075 51.3435 68.2367C49.6417 68.1555 48.5019 69.0912 48.3759 70.7686C48.2971 71.8117 48.3391 72.8627 48.3339 73.9085C48.3286 74.9333 48.3207 75.9607 48.3339 76.9855C48.3391 77.4835 48.1264 77.6984 47.6248 77.6932C45.2953 77.6774 45.6577 77.9264 45.6341 75.8559C45.6183 74.4799 45.6315 73.1039 45.6315 71.7305Z"
            fill="#373434" />
        <path
            d="M59.5554 71.8644C59.5554 70.9916 59.5422 70.1188 59.5606 69.246C59.5711 68.714 59.3321 68.4938 58.8121 68.5069C57.1786 68.5436 57.3467 68.5567 57.3414 66.9317C57.3388 65.9436 57.3651 65.9253 58.3867 65.9148C59.5528 65.9043 59.5554 65.9017 59.558 64.7458C59.558 64.5283 59.5554 64.3081 59.5633 64.0906C59.5685 63.9595 59.5685 63.8233 59.6132 63.7027C59.7287 63.3803 61.7824 62.6648 62.0477 62.8771C62.1737 62.9793 62.242 63.2099 62.2499 63.3855C62.2762 63.9517 62.2919 64.5204 62.2552 65.0866C62.2158 65.7261 62.502 65.9489 63.1087 65.9148C63.5657 65.8886 64.0279 65.9226 64.4848 65.9095C64.9444 65.8964 65.1729 66.0773 65.1703 66.5595C65.1598 68.845 65.3935 68.4676 63.3503 68.4991C62.2709 68.5148 62.263 68.5122 62.263 69.6051C62.263 71.0886 62.2578 72.572 62.2657 74.0555C62.2709 74.9912 62.4915 75.2061 63.4291 75.2323C63.7784 75.2428 64.1303 75.2507 64.477 75.2297C64.9917 75.1982 65.1598 75.442 65.1756 75.9321C65.2386 77.7432 65.1887 77.8061 63.3845 77.8061C63.2321 77.8061 63.0772 77.8061 62.9249 77.8009C60.8344 77.7275 59.6526 76.5716 59.5685 74.4775C59.5344 73.6073 59.5633 72.7319 59.5633 71.8591C59.5633 71.8644 59.558 71.8644 59.5554 71.8644Z"
            fill="#373434" />
        <path
            d="M14.7834 69.1753C14.7834 66.6853 14.7808 64.1954 14.7861 61.7081C14.7887 60.8799 14.8517 60.8144 15.6895 60.817C17.738 60.8249 17.4806 60.6021 17.4832 62.5862C17.4937 67.3039 17.4858 72.019 17.4858 76.7368C17.4858 77.6515 17.4438 77.6934 16.5168 77.6908C14.5471 77.6855 14.7939 77.8743 14.7861 75.9898C14.7755 73.7174 14.7834 71.4476 14.7834 69.1753Z"
            fill="#373434" />
        <path
            d="M22.3862 69.2431C22.3862 71.7304 22.3889 74.2177 22.3836 76.7024C22.3836 77.6276 22.3258 77.6878 21.4329 77.6878C19.5761 77.6852 19.76 77.8503 19.7574 76.0576C19.7521 71.3451 19.7547 66.6326 19.7574 61.9227C19.7574 60.8167 19.76 60.8114 20.8341 60.814C22.486 60.8193 22.3862 60.6411 22.3862 62.3709C22.3862 64.6616 22.3862 66.9524 22.3862 69.2431Z"
            fill="#373434" />
        <path
            d="M24.65 71.7046C24.65 70.0482 24.6631 68.3917 24.6421 66.7353C24.6342 66.1613 24.8259 65.873 25.4352 65.9123C25.8712 65.9411 26.3097 65.9018 26.7457 65.928C26.9269 65.9385 27.2106 65.9988 27.2604 66.1167C27.4889 66.6514 27.7621 66.447 28.1402 66.2949C28.7627 66.0486 29.4166 65.873 30.0679 65.7157C30.5196 65.6056 30.7822 65.8179 30.7822 66.3028C30.7822 66.827 30.7796 67.3486 30.7849 67.8728C30.7901 68.3157 30.5643 68.4625 30.1362 68.4992C28.2742 68.6512 27.3891 69.5895 27.3602 71.4609C27.334 73.2484 27.355 75.0359 27.3497 76.8234C27.3471 77.6201 27.2841 77.6909 26.4883 77.6883C24.3978 77.683 24.6657 77.8849 24.6526 75.8903C24.6395 74.4959 24.6473 73.099 24.65 71.7046Z"
            fill="#373434" />
    </g>
    <defs>
        <clipPath id="clip0_516_799">
            <rect width="65.194" height="78" fill="white" />
        </clipPath>
    </defs>
</svg>
