<svg width="20" height="20" viewBox="0 0 20 20" fill="none" xmlns="http://www.w3.org/2000/svg">
<g clip-path="url(#clip0_1489_4769)">
<path d="M10 0C4.485 0 0 4.485 0 10C0 15.515 4.485 20 10 20C15.515 20 20 15.515 20 10C20 4.485 15.515 0 10 0ZM10 1.25C10.2887 1.25 10.6062 1.39625 10.9662 1.7875C11.3287 2.1775 11.695 2.8 12.0062 3.59875C12.2987 4.345 12.535 5.24875 12.7125 6.25H7.2875C7.465 5.25 7.70125 4.345 7.99375 3.59875C8.305 2.80125 8.6725 2.1775 9.03375 1.78625C9.39375 1.3975 9.71125 1.25 10 1.25ZM7.625 1.5825C7.325 2.0325 7.06 2.5525 6.82875 3.145C6.44907 4.14895 6.17428 5.18949 6.00875 6.25H2.1C2.63453 5.12281 3.40414 4.12309 4.35712 3.31802C5.31009 2.51295 6.42434 1.92119 7.625 1.5825ZM12.375 1.5825C13.5757 1.92119 14.6899 2.51295 15.6429 3.31802C16.5959 4.12309 17.3655 5.12281 17.9 6.25H13.9913C13.8257 5.18949 13.5509 4.14895 13.1712 3.145C12.9623 2.59727 12.6954 2.07346 12.375 1.5825ZM1.61625 7.5H5.85875C5.76707 8.33024 5.71908 9.16472 5.715 10C5.715 10.87 5.775 11.6962 5.85875 12.5H1.61625C1.37391 11.6888 1.25054 10.8467 1.25 10C1.25 9.13 1.38125 8.2925 1.61625 7.5ZM7.11875 7.5H12.8813C12.97 8.2975 13.035 9.125 13.035 10C13.035 10.875 12.97 11.7 12.8813 12.5H7.11875C7.03 11.7 6.965 10.875 6.965 10C6.965 9.125 7.03 8.2975 7.11875 7.5ZM14.14 7.5H18.3837C18.6187 8.2925 18.75 9.13 18.75 10C18.75 10.87 18.6187 11.7075 18.3837 12.5H14.14C14.225 11.6962 14.285 10.87 14.285 10C14.285 9.13 14.225 8.3025 14.14 7.5ZM2.1025 13.75H6.00875C6.19875 14.9075 6.4775 15.96 6.82875 16.8575C7.05875 17.4487 7.32375 17.9663 7.6225 18.415C6.42299 18.076 5.30986 17.4843 4.3578 16.6797C3.40575 15.8751 2.63678 14.8762 2.1025 13.75ZM7.29 13.75H12.71C12.5338 14.75 12.2975 15.6588 12.0062 16.4037C11.695 17.2025 11.3275 17.8237 10.9662 18.2162C10.6062 18.6063 10.2887 18.75 10 18.75C9.71125 18.75 9.39375 18.6062 9.03375 18.215C8.67125 17.8237 8.305 17.2025 7.99375 16.4037C7.7025 15.6588 7.46625 14.75 7.29 13.75ZM13.9913 13.75H17.8975C17.3632 14.8762 16.5943 15.8751 15.6422 16.6797C14.6901 17.4843 13.577 18.076 12.3775 18.415C12.6763 17.965 12.94 17.4487 13.1712 16.8575C13.5212 15.96 13.8012 14.9075 13.9913 13.75Z" fill="#1D1D1D"/>
</g>
<defs>
<clipPath id="clip0_1489_4769">
<rect width="20" height="20" fill="white"/>
</clipPath>
</defs>
</svg>
