<svg width="85" height="85" viewBox="0 0 85 85" fill="none" xmlns="http://www.w3.org/2000/svg">
<g filter="url(#filter0_d_61_370)">
<rect x="11" y="6" width="63" height="63" rx="31.5" fill="white"/>
<path d="M57.3585 38.0942C57.3585 30.2163 50.9723 23.8301 43.0944 23.8301C35.2164 23.8301 28.8302 30.2163 28.8302 38.0942C28.8302 45.2142 34.0472 51.1166 40.8689 52.189V42.2146H37.2484V38.0942H40.8689V34.9495C40.8689 31.3774 42.9976 29.4019 46.2552 29.4019C47.8195 29.4019 49.4483 29.6841 49.4483 29.6841V33.1917H47.6502C45.8762 33.1917 45.3279 34.2883 45.3279 35.4172V38.0942H49.287L48.6581 42.2146H45.336V52.181C52.1415 51.1166 57.3585 45.2142 57.3585 38.0942Z" fill="#337FFF"/>
<path d="M48.6501 42.2146L49.279 38.0942H45.3199V35.4172C45.3199 34.2883 45.8763 33.1917 47.6421 33.1917H49.4403V29.6841C49.4403 29.6841 47.8115 29.4019 46.2472 29.4019C42.9896 29.4019 40.8608 31.3774 40.8608 34.9495V38.0942H37.2404V42.2146H40.8608V52.181C41.5865 52.2938 42.3284 52.3584 43.0863 52.3584C43.8443 52.3584 44.5861 52.3019 45.3118 52.181V42.2146H48.6501Z" fill="white"/>
</g>
<defs>
<filter id="filter0_d_61_370" x="0.301888" y="0.0566044" width="84.3962" height="84.3962" filterUnits="userSpaceOnUse" color-interpolation-filters="sRGB">
<feFlood flood-opacity="0" result="BackgroundImageFix"/>
<feColorMatrix in="SourceAlpha" type="matrix" values="0 0 0 0 0 0 0 0 0 0 0 0 0 0 0 0 0 0 127 0" result="hardAlpha"/>
<feOffset dy="4.75472"/>
<feGaussianBlur stdDeviation="5.34906"/>
<feComposite in2="hardAlpha" operator="out"/>
<feColorMatrix type="matrix" values="0 0 0 0 0 0 0 0 0 0 0 0 0 0 0 0 0 0 0.05 0"/>
<feBlend mode="normal" in2="BackgroundImageFix" result="effect1_dropShadow_61_370"/>
<feBlend mode="normal" in="SourceGraphic" in2="effect1_dropShadow_61_370" result="shape"/>
</filter>
</defs>
</svg>
